<svg width="129" height="48" viewBox="0 0 129 48" fill="none" xmlns="http://www.w3.org/2000/svg">
<g clip-path="url(#clip0_125_695)">
<path d="M68.2469 14.05C68.2469 15.4915 67.0858 16.6527 65.6443 16.6527C64.2029 16.6527 63.0417 15.4915 63.0417 14.05C63.0417 12.6086 64.1628 11.4474 65.6443 11.4474C67.1258 11.4875 68.2469 12.6486 68.2469 14.05ZM57.5162 19.2953C57.5162 19.5355 57.5162 19.9359 57.5162 19.9359C57.5162 19.9359 56.2749 18.3343 53.6323 18.3343C49.2679 18.3343 45.8645 21.6577 45.8645 26.2623C45.8645 30.8268 49.2279 34.1902 53.6323 34.1902C56.315 34.1902 57.5162 32.5485 57.5162 32.5485V33.2292C57.5162 33.5495 57.7564 33.7898 58.0767 33.7898H61.32V18.7347C61.32 18.7347 58.357 18.7347 58.0767 18.7347C57.7564 18.7347 57.5162 19.015 57.5162 19.2953ZM57.5162 28.9449C56.9156 29.8258 55.7144 30.5866 54.2729 30.5866C51.7104 30.5866 49.7484 28.985 49.7484 26.2623C49.7484 23.5395 51.7104 21.9379 54.2729 21.9379C55.6743 21.9379 56.9556 22.7387 57.5162 23.5796V28.9449ZM63.7224 18.7347H67.5662V33.7898H63.7224V18.7347ZM121.14 18.3343C118.497 18.3343 117.256 19.9359 117.256 19.9359V11.4875H113.412V33.7898C113.412 33.7898 116.375 33.7898 116.655 33.7898C116.976 33.7898 117.216 33.5095 117.216 33.2292V32.5485C117.216 32.5485 118.457 34.1902 121.1 34.1902C125.464 34.1902 128.868 30.8268 128.868 26.2623C128.868 21.6977 125.464 18.3343 121.14 18.3343ZM120.499 30.5465C119.018 30.5465 117.857 29.7858 117.256 28.9049V23.5395C117.857 22.7387 119.138 21.8979 120.499 21.8979C123.062 21.8979 125.024 23.4995 125.024 26.2222C125.024 28.9449 123.062 30.5465 120.499 30.5465ZM111.41 24.8609V33.8298H107.566V25.3013C107.566 22.8188 106.765 21.8178 104.603 21.8178C103.442 21.8178 102.241 22.4184 101.48 23.2993V33.7898H97.6363V18.7347H100.679C101 18.7347 101.24 19.015 101.24 19.2953V19.9359C102.361 18.7748 103.842 18.3343 105.324 18.3343C107.006 18.3343 108.407 18.8148 109.528 19.7758C110.89 20.8969 111.41 22.3383 111.41 24.8609ZM88.307 18.3343C85.6643 18.3343 84.4231 19.9359 84.4231 19.9359V11.4875H80.5792V33.7898C80.5792 33.7898 83.5422 33.7898 83.8225 33.7898C84.1428 33.7898 84.383 33.5095 84.383 33.2292V32.5485C84.383 32.5485 85.6243 34.1902 88.2669 34.1902C92.6313 34.1902 96.0347 30.8268 96.0347 26.2623C96.0747 21.6977 92.6713 18.3343 88.307 18.3343ZM87.6663 30.5465C86.1848 30.5465 85.0237 29.7858 84.4231 28.9049V23.5395C85.0237 22.7387 86.305 21.8979 87.6663 21.8979C90.2289 21.8979 92.1908 23.4995 92.1908 26.2222C92.1908 28.9449 90.2289 30.5465 87.6663 30.5465ZM77.2559 18.3343C78.4171 18.3343 79.0177 18.5345 79.0177 18.5345V22.0981C79.0177 22.0981 75.8145 21.017 73.8125 23.2993V33.8298H69.9686V18.7347C69.9686 18.7347 72.9316 18.7347 73.2119 18.7347C73.5322 18.7347 73.7724 19.015 73.7724 19.2953V19.9359C74.4932 19.0951 76.0547 18.3343 77.2559 18.3343ZM37.336 32.4284C37.1358 31.9479 36.9356 31.4274 36.7354 30.987C36.4151 30.2663 36.0948 29.5856 35.8145 28.9449L35.7744 28.9049C33.0117 22.8989 30.0487 16.8128 26.9256 10.8068L26.8055 10.5666C26.4852 9.96597 26.1648 9.32533 25.8445 8.68468C25.4441 7.96396 25.0437 7.2032 24.4031 6.48248C23.1218 4.88088 21.28 4 19.318 4C17.316 4 15.5142 4.88088 14.1929 6.4024C13.5923 7.12312 13.1518 7.88388 12.7514 8.6046C12.4311 9.24525 12.1108 9.88589 11.7905 10.4865L11.6704 10.7267C8.58727 16.7327 5.58427 22.8188 2.8215 28.8248L2.78146 28.9049C2.50118 29.5455 2.18086 30.2262 1.86054 30.9469C1.66034 31.3874 1.46014 31.8679 1.25994 32.3884C0.739422 33.8699 0.579261 35.2713 0.779462 36.7127C1.2199 39.7157 3.2219 42.2382 5.98467 43.3594C7.02571 43.7998 8.10679 44 9.22791 44C9.54823 44 9.94863 43.96 10.2689 43.9199C11.5903 43.7598 12.9516 43.3193 14.273 42.5586C15.9146 41.6376 17.4762 40.3163 19.2379 38.3944C20.9997 40.3163 22.6013 41.6376 24.2029 42.5586C25.5242 43.3193 26.8856 43.7598 28.2069 43.9199C28.5272 43.96 28.9276 44 29.2479 44C30.369 44 31.4902 43.7998 32.4912 43.3594C35.294 42.2382 37.2559 39.6757 37.6964 36.7127C38.0167 35.3113 37.8565 33.9099 37.336 32.4284ZM19.278 34.5105C17.1158 31.7878 15.7144 29.2252 15.2339 27.0631C15.0337 26.1421 14.9937 25.3413 15.1138 24.6206C15.1939 23.98 15.4341 23.4194 15.7544 22.9389C16.5152 21.8579 17.7965 21.1772 19.278 21.1772C20.7594 21.1772 22.0808 21.8178 22.8015 22.9389C23.1218 23.4194 23.362 23.98 23.4421 24.6206C23.5622 25.3413 23.5222 26.1822 23.322 27.0631C22.8415 29.1852 21.4401 31.7477 19.278 34.5105ZM35.2539 36.3924C34.9736 38.4745 33.5722 40.2763 31.6103 41.0771C30.6493 41.4775 29.6083 41.5976 28.5672 41.4775C27.5662 41.3574 26.5652 41.037 25.5242 40.4364C24.0828 39.6356 22.6413 38.3944 20.9596 36.5526C23.6023 33.3093 25.2039 30.3463 25.8045 27.7037C26.0848 26.4625 26.1248 25.3413 26.0047 24.3003C25.8445 23.2993 25.4842 22.3784 24.9236 21.5776C23.6824 19.7758 21.6003 18.7347 19.278 18.7347C16.9556 18.7347 14.8736 19.8158 13.6323 21.5776C13.0718 22.3784 12.7114 23.2993 12.5512 24.3003C12.3911 25.3413 12.4311 26.5025 12.7514 27.7037C13.352 30.3463 14.9937 33.3493 17.5963 36.5926C15.9546 38.4344 14.4732 39.6757 13.0317 40.4765C11.9907 41.0771 10.9897 41.3974 9.98867 41.5175C8.90759 41.6376 7.86655 41.4775 6.94563 41.1171C4.98366 40.3163 3.58226 38.5145 3.30198 36.4324C3.18186 35.4314 3.26194 34.4304 3.66234 33.3093C3.78246 32.9089 3.98266 32.5085 4.18286 32.028C4.46314 31.3874 4.78346 30.7067 5.10379 30.026L5.14383 29.9459C7.90659 23.98 10.8695 17.8939 13.9526 11.968L14.0728 11.7277C14.3931 11.1271 14.7134 10.4865 15.0337 9.88589C15.354 9.24524 15.7144 8.64464 16.1548 8.12412C16.9957 7.16316 18.1168 6.64264 19.358 6.64264C20.5993 6.64264 21.7204 7.16316 22.5612 8.12412C23.0017 8.64464 23.362 9.24524 23.6824 9.88589C24.0027 10.4865 24.323 11.1271 24.6433 11.7277L24.7634 11.968C27.8065 17.9339 30.7694 24.02 33.5322 29.986V30.026C33.8525 30.6667 34.1328 31.3874 34.4531 32.028C34.6533 32.5085 34.8535 32.9089 34.9736 33.3093C35.294 34.3503 35.4141 35.3514 35.2539 36.3924Z" fill="#FF5A5F"/>
</g>
<defs>
<clipPath id="clip0_125_695">
<rect width="128" height="48" fill="white" transform="translate(0.699951)"/>
</clipPath>
</defs>
</svg>
