<svg width="144" height="48" viewBox="0 0 144 48" fill="none" xmlns="http://www.w3.org/2000/svg">
<g clip-path="url(#clip0_125_691)">
<path d="M54.1126 12.7716H46.2374C45.6985 12.7716 45.2402 13.1631 45.1561 13.6951L41.971 33.8892C41.9077 34.2877 42.2163 34.6469 42.6205 34.6469H46.3802C46.9191 34.6469 47.3774 34.2554 47.4615 33.7223L48.3205 28.2756C48.4034 27.7425 48.8629 27.3509 49.4006 27.3509H51.8936C57.0812 27.3509 60.0752 24.8406 60.857 19.8661C61.2094 17.6897 60.872 15.9797 59.8529 14.7822C58.7336 13.4671 56.7484 12.7716 54.1126 12.7716ZM55.0212 20.1471C54.5905 22.9729 52.4314 22.9729 50.3437 22.9729H49.1553L49.989 17.6955C50.0385 17.3765 50.3149 17.1416 50.6373 17.1416H51.182C52.6041 17.1416 53.9456 17.1416 54.6388 17.9523C55.0522 18.4359 55.1789 19.1545 55.0212 20.1471Z" fill="#253B80"/>
<path d="M77.6532 20.0561H73.882C73.5607 20.0561 73.2832 20.291 73.2337 20.61L73.0667 21.6647L72.803 21.2824C71.9866 20.0975 70.1661 19.7014 68.349 19.7014C64.1816 19.7014 60.6223 22.8577 59.9291 27.2853C59.5687 29.4939 60.0811 31.6058 61.3339 33.0786C62.4832 34.4327 64.1275 34.997 66.0839 34.997C69.4418 34.997 71.3038 32.8379 71.3038 32.8379L71.1356 33.8858C71.0723 34.2865 71.3809 34.6458 71.7828 34.6458H75.1798C75.7198 34.6458 76.1758 34.2543 76.261 33.7211L78.2992 20.8138C78.3637 20.4165 78.0562 20.0561 77.6532 20.0561ZM72.3966 27.3958C72.0327 29.5503 70.3227 30.9966 68.1417 30.9966C67.0466 30.9966 66.1715 30.6454 65.6095 29.9798C65.0522 29.3189 64.8403 28.3781 65.0176 27.3302C65.3573 25.1941 67.0961 23.7006 69.2437 23.7006C70.3146 23.7006 71.1852 24.0564 71.7586 24.7278C72.3332 25.406 72.5612 26.3526 72.3966 27.3958Z" fill="#253B80"/>
<path d="M97.7379 20.056H93.9483C93.5867 20.056 93.247 20.2357 93.042 20.5362L87.8153 28.2352L85.5998 20.8368C85.4604 20.3738 85.0332 20.056 84.5496 20.056H80.8256C80.373 20.056 80.0587 20.4982 80.2026 20.9243L84.3769 33.1741L80.4525 38.714C80.1439 39.1505 80.4548 39.7504 80.988 39.7504H84.773C85.1323 39.7504 85.4685 39.5754 85.6723 39.2806L98.2768 21.0866C98.5785 20.6514 98.2687 20.056 97.7379 20.056Z" fill="#253B80"/>
<path d="M110.285 12.7716H102.408C101.871 12.7716 101.412 13.1631 101.328 13.6951L98.1432 33.8892C98.0798 34.2877 98.3884 34.6469 98.7903 34.6469H102.832C103.208 34.6469 103.529 34.3729 103.588 33.9998L104.491 28.2756C104.574 27.7425 105.034 27.3509 105.572 27.3509H108.063C113.252 27.3509 116.245 24.8406 117.028 19.8661C117.382 17.6897 117.042 15.9797 116.023 14.7822C114.905 13.4671 112.921 12.7716 110.285 12.7716ZM111.193 20.1471C110.764 22.9729 108.605 22.9729 106.516 22.9729H105.329L106.163 17.6955C106.213 17.3765 106.487 17.1416 106.811 17.1416H107.355C108.776 17.1416 110.119 17.1416 110.812 17.9523C111.226 18.4359 111.351 19.1545 111.193 20.1471Z" fill="#179BD7"/>
<path d="M133.824 20.0561H130.055C129.732 20.0561 129.456 20.291 129.408 20.61L129.241 21.6647L128.976 21.2824C128.16 20.0975 126.34 19.7014 124.523 19.7014C120.356 19.7014 116.798 22.8577 116.105 27.2853C115.745 29.4939 116.255 31.6058 117.508 33.0786C118.66 34.4327 120.302 34.997 122.258 34.997C125.616 34.997 127.478 32.8379 127.478 32.8379L127.31 33.8858C127.247 34.2865 127.555 34.6458 127.959 34.6458H131.355C131.893 34.6458 132.351 34.2543 132.435 33.7211L134.475 20.8138C134.537 20.4165 134.228 20.0561 133.824 20.0561ZM128.567 27.3958C128.206 29.5503 126.494 30.9966 124.313 30.9966C123.22 30.9966 122.342 30.6454 121.78 29.9798C121.223 29.3189 121.013 28.3781 121.188 27.3302C121.53 25.1941 123.267 23.7006 125.415 23.7006C126.485 23.7006 127.356 24.0564 127.929 24.7278C128.506 25.406 128.734 26.3526 128.567 27.3958Z" fill="#179BD7"/>
<path d="M138.27 13.3254L135.038 33.8892C134.974 34.2876 135.283 34.6469 135.685 34.6469H138.934C139.474 34.6469 139.933 34.2554 140.016 33.7222L143.203 13.5292C143.266 13.1308 142.958 12.7704 142.556 12.7704H138.917C138.596 12.7715 138.319 13.0064 138.27 13.3254Z" fill="#179BD7"/>
<path d="M9.26685 38.5713L9.8691 34.746L8.52758 34.7149H2.1217L6.57346 6.48781C6.58728 6.40259 6.63219 6.32314 6.69782 6.26671C6.76346 6.21029 6.84752 6.1792 6.93504 6.1792H17.7362C21.3221 6.1792 23.7967 6.92538 25.0887 8.39817C25.6944 9.08908 26.0801 9.81108 26.2667 10.6056C26.4624 11.4393 26.4659 12.4354 26.2747 13.6502L26.2609 13.7389V14.5173L26.8666 14.8605C27.3767 15.1311 27.7821 15.4408 28.093 15.7955C28.6112 16.3862 28.9462 17.137 29.0879 18.0271C29.2341 18.9426 29.1858 20.0319 28.9462 21.2652C28.6699 22.6839 28.2231 23.9194 27.6197 24.9305C27.0647 25.862 26.3576 26.6347 25.5182 27.2335C24.7167 27.8024 23.7644 28.2342 22.6878 28.5105C21.6445 28.7823 20.455 28.9193 19.1503 28.9193H18.3097C17.7086 28.9193 17.1248 29.1358 16.6665 29.5239C16.207 29.92 15.903 30.4612 15.8098 31.0531L15.7464 31.3974L14.6824 38.1395L14.6341 38.3871C14.6214 38.4654 14.5995 38.5045 14.5673 38.531C14.5385 38.5552 14.497 38.5713 14.4567 38.5713H9.26685Z" fill="#253B80"/>
<path d="M27.4402 13.8286C27.4079 14.0347 27.3711 14.2455 27.3296 14.4619C25.9052 21.7752 21.032 24.3016 14.808 24.3016H11.6391C10.8779 24.3016 10.2365 24.8544 10.1179 25.6052L8.49544 35.8951L8.03598 38.8119C7.95883 39.3047 8.33883 39.7492 8.83628 39.7492H14.4568C15.1224 39.7492 15.6878 39.2656 15.7926 38.6092L15.8479 38.3236L16.9061 31.608L16.974 31.2395C17.0777 30.5809 17.6442 30.0972 18.3098 30.0972H19.1504C24.5959 30.0972 28.8588 27.8863 30.1048 21.4885C30.6253 18.8158 30.3558 16.5842 28.9786 15.0147C28.5617 14.5414 28.0447 14.1487 27.4402 13.8286Z" fill="#179BD7"/>
<path d="M25.95 13.2345C25.7323 13.1712 25.5078 13.1136 25.2775 13.0618C25.046 13.0111 24.8088 12.9662 24.5647 12.9271C23.7103 12.7889 22.7741 12.7233 21.7711 12.7233H13.3052C13.0968 12.7233 12.8987 12.7705 12.7214 12.8557C12.331 13.0434 12.0408 13.413 11.9706 13.8656L10.1696 25.2725L10.1178 25.6053C10.2364 24.8545 10.8778 24.3018 11.6389 24.3018H14.8079C21.0319 24.3018 25.9051 21.7742 27.3295 14.4621C27.3721 14.2456 27.4078 14.0348 27.44 13.8287C27.0796 13.6376 26.6892 13.4741 26.2689 13.3347C26.1653 13.3002 26.0582 13.2668 25.95 13.2345Z" fill="#222D65"/>
<path d="M11.9707 13.8655C12.0409 13.413 12.3311 13.0433 12.7215 12.8568C12.8999 12.7716 13.0969 12.7244 13.3053 12.7244H21.7712C22.7742 12.7244 23.7104 12.79 24.5648 12.9282C24.8089 12.9673 25.0461 13.0122 25.2776 13.0629C25.5079 13.1147 25.7324 13.1723 25.9501 13.2356C26.0583 13.2679 26.1654 13.3013 26.2702 13.3347C26.6905 13.474 27.0809 13.6387 27.4413 13.8287C27.865 11.1261 27.4378 9.28594 25.9766 7.6197C24.3656 5.78533 21.458 5 17.7375 5H6.93625C6.17625 5 5.52795 5.55273 5.4105 6.30467L0.911527 34.8219C0.82286 35.3862 1.25813 35.8952 1.82698 35.8952H8.49541L10.1697 25.2724L11.9707 13.8655Z" fill="#253B80"/>
</g>
<defs>
<clipPath id="clip0_125_691">
<rect width="143" height="48" fill="white" transform="translate(0.900024)"/>
</clipPath>
</defs>
</svg>
