<svg width="141" height="48" viewBox="0 0 141 48" fill="none" xmlns="http://www.w3.org/2000/svg">
<path d="M54.7272 18.9039H59.1254V32.7249H54.7272V18.9039Z" fill="#E60019"/>
<path d="M60.0519 18.9039H64.2867V20.7966H64.3684C65.3896 19.3124 66.7105 18.509 68.6304 18.509C71.6533 18.509 73.4371 20.674 73.4371 23.7514V32.7385H69.0389V24.6365C69.0389 23.1795 68.3036 22.1855 66.8739 22.1855C65.4169 22.1855 64.4501 23.3974 64.4501 25.0995V32.7385H60.0519V18.9039Z" fill="#E60019"/>
<path d="M56.9317 17.8554C58.3906 17.8554 59.5733 16.6727 59.5733 15.2138C59.5733 13.7548 58.3906 12.5721 56.9317 12.5721C55.4727 12.5721 54.29 13.7548 54.29 15.2138C54.29 16.6727 55.4727 17.8554 56.9317 17.8554Z" fill="#E60019"/>
<path d="M104.373 18.6997C104.25 18.686 104.1 18.686 103.937 18.686C102.262 18.686 101.132 19.4213 100.151 21.0553H100.07V18.9039H95.8621V32.7249H100.26V26.5157C100.26 23.6425 101.853 22.3081 104.373 22.5396V18.6997Z" fill="#E60019"/>
<path d="M125.969 24.0101C124.213 23.6833 122.647 23.5472 122.647 22.5804C122.647 21.7225 123.478 21.314 124.567 21.314C125.779 21.314 126.623 21.6953 126.786 22.9344H130.831C130.613 20.2111 128.516 18.509 124.594 18.509C121.326 18.509 118.63 20.0204 118.63 22.9344C118.63 26.1752 121.19 26.8152 123.6 27.2237C125.438 27.5505 127.113 27.6866 127.113 28.9258C127.113 29.8109 126.283 30.3011 124.948 30.3011C123.627 30.3011 122.742 29.7428 122.47 28.599H118.276C118.589 31.4449 121.081 33.1606 124.975 33.1606C128.597 33.1606 131.266 31.5947 131.266 28.5717C131.253 25.0314 128.393 24.4186 125.969 24.0101Z" fill="#E60019"/>
<path d="M111.44 29.9744C109.629 29.9744 108.608 28.817 108.335 26.9515H118.262C118.289 24.1464 117.486 21.7363 115.838 20.2248C114.653 19.1491 113.088 18.4955 111.113 18.4955C106.906 18.4955 104.019 21.6546 104.019 25.7804C104.019 29.9608 106.824 33.1199 111.385 33.1199C113.142 33.1199 114.545 32.6569 115.702 31.8535C116.914 31.0229 117.731 29.8246 118.017 28.5855H113.728C113.36 29.457 112.611 29.9744 111.44 29.9744ZM111.195 21.6273C112.625 21.6273 113.646 22.6758 113.809 24.3234H108.363C108.662 22.6894 109.534 21.6273 111.195 21.6273Z" fill="#E60019"/>
<path d="M139.001 29.4705C138.796 29.4841 138.524 29.4841 138.265 29.4841C137.326 29.4841 136.727 29.2118 136.727 28.1361V21.6545H139.001V18.9039H136.727V14.533H132.437V18.9039H131.089V21.6545H132.437V29.0756C132.437 32.0441 134.276 32.8883 136.835 32.8883C137.816 32.8883 138.551 32.8202 139.001 32.7249V29.4705Z" fill="#E60019"/>
<path d="M81.2921 29.4705C81.1151 29.4705 80.9109 29.4841 80.7202 29.4841C79.7807 29.4841 79.1816 29.2118 79.1816 28.1361V21.6545H81.2921V18.9039H79.1816V14.533H74.8923V18.9039H73.4625V21.6545H74.8923V29.0756C74.8923 32.0441 76.7305 32.8883 79.2905 32.8883C80.162 32.8883 80.8428 32.8338 81.2921 32.7521V29.4705Z" fill="#E60019"/>
<path d="M81.0747 25.7939C81.0747 21.6681 83.9615 18.509 88.169 18.509C90.1434 18.509 91.7094 19.1626 92.894 20.2383C94.5416 21.7498 95.345 24.1463 95.3178 26.965H85.3912C85.6635 28.8305 86.6848 29.9879 88.4958 29.9879C89.6532 29.9879 90.4158 29.4704 90.7834 28.6126H95.0727C94.7731 29.8517 93.9697 31.0364 92.7579 31.8806C91.6004 32.684 90.1979 33.147 88.4414 33.147C83.8797 33.1333 81.0747 29.9743 81.0747 25.7939ZM90.8788 24.3369C90.7154 22.6893 89.6941 21.6408 88.2643 21.6408C86.5895 21.6408 85.7316 22.6893 85.4321 24.3369H90.8788Z" fill="#E60019"/>
<path d="M39.2577 13.4299H46.8967C49.2388 13.4299 50.9681 14.0835 52.1664 15.2137C53.4055 16.3711 54.1135 18.0188 54.1135 19.966C54.1135 23.6697 51.5536 26.2841 47.5775 26.2841H43.7104V32.7385H39.2577V13.4299ZM47.0873 22.4987C48.8166 22.4987 49.7834 21.4774 49.7834 19.9387C49.7834 18.4 48.7894 17.4605 47.0873 17.4605H43.7104V22.5123H47.0873V22.4987Z" fill="#E60019"/>
<path d="M16.5443 40.1324C25.6815 40.1324 33.0887 32.7252 33.0887 23.588C33.0887 14.4508 25.6815 7.0437 16.5443 7.0437C7.40715 7.0437 0 14.4508 0 23.588C0 32.7252 7.40715 40.1324 16.5443 40.1324Z" fill="white"/>
<path d="M16.5443 7.0437C7.39388 7.0437 0 14.4512 0 23.588C0 30.6006 4.35735 36.592 10.5121 39.0022C10.3623 37.695 10.2398 35.6797 10.5666 34.2499C10.8661 32.9563 12.5002 26.0254 12.5002 26.0254C12.5002 26.0254 12.01 25.0314 12.01 23.5744C12.01 21.2732 13.3444 19.5575 15.0056 19.5575C16.4218 19.5575 17.1026 20.6196 17.1026 21.8859C17.1026 23.3021 16.2039 25.4263 15.7273 27.4007C15.3324 29.0483 16.5579 30.3964 18.1783 30.3964C21.1195 30.3964 23.3799 27.2918 23.3799 22.8255C23.3799 18.863 20.534 16.0988 16.4626 16.0988C11.7512 16.0988 8.98704 19.6256 8.98704 23.2748C8.98704 24.691 9.53171 26.2161 10.2125 27.0467C10.3487 27.2101 10.3623 27.3599 10.3215 27.5233C10.1989 28.0407 9.91298 29.1709 9.85851 29.4024C9.79043 29.7019 9.61341 29.77 9.30023 29.6202C7.25772 28.6398 5.97774 25.6169 5.97774 23.1931C5.97774 17.9779 9.7632 13.1848 16.912 13.1848C22.6446 13.1848 27.1109 17.2699 27.1109 22.7438C27.1109 28.4492 23.5161 33.038 18.5324 33.038C16.8575 33.038 15.278 32.1666 14.7469 31.1317C14.7469 31.1317 13.9163 34.2908 13.712 35.0669C13.3444 36.5103 12.3368 38.3077 11.6559 39.4107C13.2082 39.8873 14.8422 40.146 16.5579 40.146C25.6948 40.146 33.1023 32.7385 33.1023 23.6016C33.0886 14.4512 25.6812 7.0437 16.5443 7.0437Z" fill="#E60019"/>
</svg>
