<svg width="122" height="48" viewBox="0 0 122 48" fill="none" xmlns="http://www.w3.org/2000/svg">
<g clip-path="url(#clip0_125_697)">
<path d="M38.025 32.4263L39.4932 28.9949C41.1006 30.1853 43.1973 30.8154 45.2944 30.8154C46.8322 30.8154 47.8106 30.2204 47.8106 29.3101C47.7756 26.7889 38.5493 28.7498 38.4792 22.4112C38.4441 19.1897 41.3101 16.7036 45.3646 16.7036C47.7756 16.7036 50.1875 17.2991 51.8997 18.6649L50.5278 22.1696C48.9525 21.1566 47.0067 20.4503 45.1546 20.4503C43.8965 20.4503 43.0574 21.0453 43.0574 21.8162C43.0925 24.3023 52.3894 22.9364 52.4942 28.9949C52.4942 32.2865 49.6978 34.5977 45.7135 34.5977C42.7782 34.5977 40.0871 33.8975 38.0245 32.4263H38.025ZM96.4831 27.7523C96.1125 28.4108 95.5734 28.9588 94.9212 29.3402C94.269 29.7216 93.527 29.9226 92.7714 29.9227C90.4166 29.9227 88.5079 28.0099 88.5079 25.6506C88.5079 23.2913 90.4166 21.3786 92.7714 21.3786C93.527 21.3787 94.269 21.5797 94.9212 21.9611C95.5734 22.3425 96.1125 22.8905 96.4831 23.549L100.565 21.2834C99.0359 18.5511 96.1197 16.7036 92.7714 16.7036C87.8398 16.7036 83.8419 20.709 83.8419 25.6506C83.8419 30.5918 87.8398 34.5977 92.7714 34.5977C96.1197 34.5977 99.0359 32.7501 100.565 30.0179L96.4831 27.7523ZM55.1427 34.2473H60.2453V9.25574H55.1432L55.1427 34.2473ZM103.141 9.25574V34.2473H108.244V26.7599L114.29 34.2473H120.813L113.124 25.3524L120.253 17.0524H114.011L108.244 23.953V9.25574H103.141ZM75.9655 17.0535V19.085C75.1269 17.684 73.0649 16.7036 70.898 16.7036C66.4245 16.7036 62.8948 20.6608 62.8948 25.6331C62.8948 30.6053 66.4245 34.5977 70.898 34.5977C73.0649 34.5977 75.1269 33.6173 75.9655 32.2163V34.2473H81.0681V17.0535H75.9655ZM75.9655 27.7869C75.2317 29.0124 73.6939 29.9222 71.9817 29.9222C69.6264 29.9222 67.7177 28.0099 67.7177 25.6506C67.7177 23.2913 69.6264 21.3786 71.9817 21.3786C73.6939 21.3786 75.2317 22.3239 75.9655 23.584V27.7869Z" fill="black"/>
<path d="M11.0783 8.70361C9.4247 8.70361 8.08439 10.0469 8.08439 11.7035C8.084 12.0971 8.16112 12.4868 8.31137 12.8506C8.46161 13.2143 8.68202 13.5449 8.96003 13.8235C9.23804 14.1021 9.56819 14.3231 9.93164 14.4741C10.2951 14.6251 10.6847 14.703 11.0783 14.7034H14.0726V11.7035C14.0733 10.9086 13.7582 10.1461 13.1967 9.58348C12.6351 9.0209 11.8731 8.70441 11.0783 8.70361ZM11.0783 16.7033H3.0941C1.44052 16.7033 0.10022 18.0466 0.10022 19.7037C0.10022 21.3603 1.44052 22.7036 3.0941 22.7036H11.0788C12.7318 22.7036 14.0726 21.3603 14.0726 19.7037C14.0726 18.0466 12.7318 16.7033 11.0783 16.7033Z" fill="#36C5F0"/>
<path d="M30.0411 19.7037C30.0411 18.0466 28.7003 16.7033 27.0467 16.7033C25.3931 16.7033 24.0528 18.0466 24.0528 19.7037V22.7036H27.0467C27.8416 22.7028 28.6036 22.3863 29.1651 21.8237C29.7267 21.2612 30.0418 20.4986 30.0411 19.7037ZM22.0569 19.7037V11.7035C22.0576 10.9086 21.7425 10.1461 21.181 9.58348C20.6194 9.0209 19.8574 8.70441 19.0625 8.70361C17.409 8.70361 16.0687 10.0469 16.0687 11.7035V19.7032C16.0687 21.3608 17.409 22.7041 19.0625 22.7041C19.8574 22.7033 20.6194 22.3868 21.181 21.8242C21.7425 21.2617 22.0576 20.4991 22.0569 19.7042" fill="#2EB67D"/>
<path d="M19.0626 38.7036C19.8575 38.7028 20.6195 38.3863 21.181 37.8237C21.7426 37.2612 22.0576 36.4986 22.057 35.7037C22.0576 34.9088 21.7426 34.1463 21.181 33.5837C20.6195 33.0211 19.8575 32.7046 19.0626 32.7038H16.0687V35.7037C16.0687 37.3603 17.409 38.7036 19.0626 38.7036ZM19.0626 30.7039H27.0473C28.7004 30.7039 30.0412 29.3606 30.0412 27.7035C30.0418 26.9086 29.7267 26.1461 29.1652 25.5835C28.6037 25.0209 27.8416 24.7044 27.0468 24.7036H19.0626C17.409 24.7036 16.0687 26.0469 16.0687 27.7035C16.0683 28.0971 16.1455 28.4868 16.2957 28.8506C16.4459 29.2143 16.6664 29.5449 16.9444 29.8235C17.2224 30.1021 17.5525 30.3231 17.916 30.4741C18.2794 30.6251 18.669 30.703 19.0626 30.7034" fill="#ECB22E"/>
<path d="M0.0999771 27.7035C0.099582 28.0971 0.176707 28.4868 0.32695 28.8506C0.477193 29.2143 0.69761 29.5449 0.975617 29.8235C1.25362 30.1021 1.58378 30.3231 1.94722 30.4741C2.31067 30.6251 2.7003 30.703 3.09385 30.7034C3.88872 30.7026 4.65073 30.3861 5.21227 29.8235C5.77381 29.261 6.0889 28.4984 6.08823 27.7035V24.7036H3.09385C1.44028 24.7036 0.0999771 26.0469 0.0999771 27.7035ZM8.08415 27.7035V35.7032C8.08415 37.3603 9.42445 38.7036 11.078 38.7036C11.8729 38.7028 12.6349 38.3863 13.1964 37.8237C13.758 37.2612 14.0731 36.4986 14.0724 35.7037V27.7035C14.0728 27.3099 13.9957 26.9201 13.8454 26.5563C13.6951 26.1925 13.4746 25.8619 13.1966 25.5833C12.9185 25.3048 12.5883 25.0837 12.2248 24.9327C11.8613 24.7818 11.4716 24.7039 11.078 24.7036C9.42445 24.7036 8.08415 26.0469 8.08415 27.7035Z" fill="#E01E5A"/>
</g>
<defs>
<clipPath id="clip0_125_697">
<rect width="121" height="48" fill="white" transform="translate(0.0999756)"/>
</clipPath>
</defs>
</svg>
