<svg width="16" height="16" viewBox="0 0 16 16" fill="none" xmlns="http://www.w3.org/2000/svg">
<g clip-path="url(#clip0_991_1052)">
<path d="M8.99969 7C8.99969 7.552 8.55169 8 7.99969 8C7.44769 8 6.99969 7.552 6.99969 7C6.99969 6.448 7.44769 6 7.99969 6C8.55169 6 8.99969 6.448 8.99969 7ZM11.333 6C10.781 6 10.333 6.448 10.333 7C10.333 7.552 10.781 8 11.333 8C11.885 8 12.333 7.552 12.333 7C12.333 6.448 11.885 6 11.333 6ZM4.66636 6C4.11436 6 3.66636 6.448 3.66636 7C3.66636 7.552 4.11436 8 4.66636 8C5.21836 8 5.66636 7.552 5.66636 7C5.66636 6.448 5.21836 6 4.66636 6ZM15.9997 2.66667V10.6667C15.9997 12.1373 14.8037 13.3333 13.333 13.3333H11.4317L8.86636 15.4533C8.62569 15.668 8.31703 15.776 8.00502 15.776C7.68769 15.776 7.36836 15.664 7.11369 15.438L4.61436 13.3333H2.66569C1.19502 13.3333 -0.000976562 12.1373 -0.000976562 10.6667V2.66667C-0.000309896 1.196 1.19569 0 2.66636 0H13.333C14.8037 0 15.9997 1.196 15.9997 2.66667ZM14.6664 2.66667C14.6664 1.93133 14.0684 1.33333 13.333 1.33333H2.66636C1.93102 1.33333 1.33302 1.93133 1.33302 2.66667V10.6667C1.33302 11.402 1.93102 12 2.66636 12H4.85836C5.01502 12 5.16769 12.0553 5.28836 12.1567L7.98702 14.43L10.7677 12.1527C10.887 12.054 11.037 12 11.1924 12H13.3337C14.069 12 14.667 11.402 14.667 10.6667L14.6664 2.66667Z" fill="#505050"/>
</g>
<defs>
<clipPath id="clip0_991_1052">
<rect width="16" height="16" fill="white"/>
</clipPath>
</defs>
</svg>
