<svg width="42" height="40" viewBox="0 0 42 40" fill="none" xmlns="http://www.w3.org/2000/svg">
<rect width="42" height="40" rx="4" fill="white"/>
<g clip-path="url(#clip0_991_1060)">
<path d="M14.3333 21.3333C15.0697 21.3333 15.6667 20.7363 15.6667 20C15.6667 19.2636 15.0697 18.6666 14.3333 18.6666C13.597 18.6666 13 19.2636 13 20C13 20.7363 13.597 21.3333 14.3333 21.3333Z" fill="black"/>
<path d="M21.0003 21.3333C21.7367 21.3333 22.3337 20.7363 22.3337 20C22.3337 19.2636 21.7367 18.6666 21.0003 18.6666C20.2639 18.6666 19.667 19.2636 19.667 20C19.667 20.7363 20.2639 21.3333 21.0003 21.3333Z" fill="black"/>
<path d="M27.6663 21.3333C28.4027 21.3333 28.9997 20.7363 28.9997 20C28.9997 19.2636 28.4027 18.6666 27.6663 18.6666C26.93 18.6666 26.333 19.2636 26.333 20C26.333 20.7363 26.93 21.3333 27.6663 21.3333Z" fill="black"/>
</g>
<defs>
<clipPath id="clip0_991_1060">
<rect width="16" height="16" fill="white" transform="translate(13 12)"/>
</clipPath>
</defs>
</svg>
