<svg width="120" height="120" viewBox="0 0 120 120" fill="none" xmlns="http://www.w3.org/2000/svg">
<path fill-rule="evenodd" clip-rule="evenodd" d="M60.0001 120C48.1332 120 36.5328 116.481 26.6658 109.888C16.7989 103.295 9.10857 93.9246 4.56732 82.961C0.0260591 71.9975 -1.16222 59.9334 1.15289 48.2946C3.468 36.6557 9.18251 25.9648 17.5737 17.5736C25.9648 9.18248 36.6557 3.46803 48.2946 1.15292C59.9335 -1.16219 71.9975 0.025969 82.9611 4.56723C93.9247 9.10848 103.295 16.7988 109.888 26.6658C116.481 36.5327 120 48.1331 120 60C120 75.913 113.679 91.1742 102.426 102.426C91.1743 113.679 75.913 120 60.0001 120ZM26.028 73.5301C24.7378 72.2256 24.0141 70.4648 24.0141 68.63C24.0141 66.7953 24.7378 65.0345 26.028 63.73L29.5601 60.218C30.1608 59.6119 30.877 59.1327 31.6664 58.8087C32.4559 58.4848 33.3024 58.3228 34.1557 58.3323C35.009 58.3418 35.8516 58.5226 36.6336 58.8641C37.4156 59.2056 38.1211 59.7007 38.7081 60.32L44.9481 66.794C45.2456 67.108 45.6039 67.358 46.0013 67.5288C46.3986 67.6997 46.8266 67.7878 47.2591 67.7878C47.6916 67.7878 48.1196 67.6997 48.5169 67.5288C48.9142 67.358 49.2725 67.108 49.57 66.794L81.37 34.014C81.9613 33.3903 82.6726 32.8926 83.4611 32.5508C84.2496 32.209 85.0991 32.0303 85.9585 32.0252C86.8179 32.0202 87.6695 32.189 88.462 32.5214C89.2545 32.8539 89.9715 33.3433 90.57 33.96L94 37.428C95.2588 38.7271 95.9627 40.4651 95.9627 42.274C95.9627 44.0829 95.2588 45.8209 94 47.12L51.782 90.022C51.1929 90.6319 50.4879 91.118 49.7084 91.4518C48.9289 91.7856 48.0906 91.9604 47.2426 91.966C46.3947 91.9716 45.5541 91.8079 44.7703 91.4843C43.9865 91.1608 43.2752 90.684 42.678 90.082L26.028 73.5301Z" fill="#3655B3"/>
</svg>
