<svg width="628" height="628" viewBox="0 0 628 628" fill="none" xmlns="http://www.w3.org/2000/svg">
<path d="M222.739 549.914C251.916 524.707 254.842 483.196 249.818 446.671C248.977 440.58 248.989 434.111 245.523 428.999C242.056 423.887 234.884 420.961 229.672 424.101C225.351 426.713 223.919 432.202 221.835 436.837C219.037 443.012 214.553 448.271 208.898 452.009C205.205 454.433 200.52 456.167 196.451 454.446C190.874 452.085 189.505 444.85 188.915 438.771C187.809 427.417 186.708 416.067 185.611 404.721C185.021 398.642 184.355 392.425 181.919 386.848C179.482 381.271 174.697 376.335 168.743 375.305C162.79 374.275 155.97 378.357 155.367 384.436C155.103 386.948 155.882 389.46 155.97 392.035C156.058 394.61 155.179 397.499 152.842 398.441C150.506 399.383 147.818 397.938 145.872 396.343C138.964 390.842 133.889 383.369 129.091 375.908C124.294 368.448 119.596 360.836 113.216 354.682C106.835 348.527 98.3948 344.069 89.6279 344.483C80.8611 344.898 72.1319 351.215 70.7879 360.007C69.444 368.799 75.3723 376.988 81.5267 383.381C90.6719 392.842 101.133 400.934 112.588 407.409C114.647 408.577 116.883 409.833 117.838 412.006C119.584 415.924 116.155 420.358 112.286 422.054C107.903 424.026 102.942 424.063 98.2567 425.118C93.5718 426.173 88.6483 428.786 87.3169 433.458C85.458 439.927 91.3361 445.905 96.8876 449.648C108.024 457.143 120.366 462.666 133.374 465.976C138.022 467.157 142.882 468.099 146.814 470.874C150.745 473.65 153.483 478.888 151.75 483.434C150.016 487.981 144.553 489.903 139.78 489.513C135.007 489.124 130.536 487.001 125.964 485.745C117.273 483.447 106.534 485.143 101.924 492.917C98.8972 498.029 99.274 504.673 101.635 510.162C103.997 515.651 108.116 520.135 112.412 524.242C127.484 538.585 145.897 549.475 165.98 554.197C186.064 558.92 204.225 558.882 222.776 549.852" fill="#F5F5F5"/>
<path d="M226.08 577.032C222.636 560.214 217.589 543.765 211.008 527.909C203.71 509.974 194.077 490.97 183.376 471.452L175.362 457.021C172.712 452.286 170.1 447.601 167.249 443.205C161.77 434.71 155.82 426.529 149.426 418.7C143.385 411.164 137.381 404.256 131.704 397.825C126.027 391.395 120.613 385.529 115.451 380.38C107.307 372.189 98.5204 364.662 89.1758 357.872C85.8976 355.461 83.2851 353.69 81.5016 352.509L79.4669 351.165C79.2421 351.004 79.0023 350.866 78.751 350.751C78.9581 350.935 79.1762 351.107 79.4041 351.266L81.376 352.697C83.1219 353.953 85.6841 355.775 88.912 358.224C98.0757 365.128 106.708 372.71 114.735 380.907C119.847 386.082 125.21 391.985 130.85 398.416C136.489 404.847 142.455 411.805 148.434 419.316C154.774 427.139 160.682 435.302 166.131 443.77C168.957 448.179 171.557 452.838 174.194 457.586L182.208 472.017C192.959 491.523 202.593 510.464 209.928 528.324C216.549 544.098 221.67 560.461 225.226 577.195" fill="#E0E0E0"/>
<path d="M166.759 443.167C166.963 442.294 167.072 441.401 167.086 440.504C167.236 438.796 167.362 436.309 167.475 433.232C167.714 427.078 167.751 418.587 167.751 409.217C167.751 399.848 167.915 391.37 168.241 385.24C168.392 382.176 168.543 379.701 168.668 377.981C168.784 377.094 168.809 376.197 168.743 375.305C168.473 376.162 168.305 377.047 168.241 377.943C167.977 379.639 167.701 382.113 167.45 385.178C166.91 391.319 166.633 399.823 166.633 409.205C166.633 418.587 166.633 426.789 166.633 433.207C166.633 436.096 166.633 438.532 166.633 440.492C166.581 441.386 166.623 442.282 166.759 443.167Z" fill="#E0E0E0"/>
<path d="M87.0283 436.611C88.0813 436.705 89.1405 436.705 90.1934 436.611C92.2156 436.611 95.1421 436.523 98.7719 436.611C106.006 436.611 116.017 437.05 127.032 437.967C138.047 438.884 147.995 440.19 155.154 441.321C158.746 441.861 161.635 442.376 163.632 442.715C164.659 442.956 165.706 443.103 166.759 443.155C165.778 442.759 164.76 442.465 163.72 442.275C161.735 441.798 158.859 441.17 155.279 440.517C148.133 439.186 138.185 437.779 127.12 436.824C117.689 436.011 108.224 435.68 98.7594 435.832C95.1295 435.895 92.1905 436.071 90.1683 436.234C89.1122 436.262 88.0611 436.388 87.0283 436.611Z" fill="#E0E0E0"/>
<path d="M209.752 526.565C209.947 526.254 210.095 525.915 210.192 525.561C210.468 524.757 210.82 523.777 211.234 522.596C212.126 520.009 213.332 516.241 214.751 511.569C217.602 502.212 221.131 489.174 224.799 474.73C228.466 460.286 231.908 447.236 234.558 437.842C235.814 433.27 236.932 429.514 237.723 426.713C238.062 425.457 238.339 424.503 238.565 423.686C238.691 423.339 238.767 422.975 238.791 422.606C238.596 422.918 238.448 423.257 238.351 423.611C238.075 424.415 237.723 425.395 237.309 426.575C236.417 429.163 235.211 432.931 233.792 437.603C230.941 446.96 227.411 459.997 223.744 474.441C220.076 488.885 216.635 501.935 213.985 511.343C212.729 515.902 211.611 519.67 210.82 522.458C210.48 523.714 210.204 524.669 209.978 525.485C209.852 525.833 209.775 526.196 209.752 526.565Z" fill="#E0E0E0"/>
<path d="M102.401 503.794C102.74 503.949 103.1 504.055 103.469 504.108L106.596 504.812L118.101 507.324C127.81 509.396 141.199 512.423 155.982 515.789C170.765 519.155 184.192 522.069 193.951 523.928C198.824 524.87 202.743 525.598 205.519 526.038L208.684 526.528C209.049 526.618 209.427 526.648 209.802 526.616C209.455 526.469 209.093 526.364 208.722 526.302L205.607 525.598L194.102 523.149C184.393 521.064 171.004 518.037 156.221 514.671C141.438 511.305 128.011 508.391 118.252 506.532C113.379 505.59 109.46 504.874 106.672 504.422L103.519 503.932C103.155 503.833 102.779 503.787 102.401 503.794Z" fill="#E0E0E0"/>
<path d="M192.884 272.326C192.408 272.327 191.942 272.193 191.539 271.94C191.137 271.686 190.815 271.324 190.61 270.894L185.159 259.59C184.988 259.239 184.901 258.852 184.905 258.461C184.909 258.07 185.005 257.685 185.184 257.337C185.364 256.989 185.622 256.689 185.938 256.458C186.254 256.228 186.62 256.075 187.006 256.011C188.065 255.807 189.07 255.385 189.959 254.774C190.847 254.162 191.599 253.373 192.168 252.456C192.715 251.662 193.093 250.764 193.278 249.817C193.464 248.871 193.454 247.897 193.248 246.955C192.982 246.022 192.531 245.153 191.923 244.398C191.314 243.643 190.56 243.017 189.706 242.559C188.785 242.016 187.766 241.662 186.707 241.518C185.648 241.374 184.571 241.441 183.539 241.717C181.53 242.451 179.829 243.844 178.713 245.669C177.598 247.494 177.134 249.643 177.397 251.765C177.443 252.095 177.424 252.431 177.341 252.753C177.257 253.076 177.111 253.379 176.91 253.645C176.709 253.91 176.458 254.134 176.171 254.303C175.884 254.472 175.567 254.583 175.237 254.629C174.907 254.675 174.571 254.656 174.249 254.572C173.926 254.489 173.623 254.342 173.358 254.142C173.092 253.941 172.868 253.69 172.699 253.403C172.53 253.116 172.419 252.799 172.373 252.469C171.954 249.144 172.695 245.776 174.47 242.934C176.246 240.092 178.948 237.95 182.12 236.869C183.805 236.389 185.57 236.253 187.309 236.469C189.048 236.685 190.726 237.248 192.243 238.125C193.686 238.92 194.954 239.996 195.973 241.291C196.991 242.585 197.739 244.072 198.171 245.661C198.543 247.275 198.58 248.948 198.279 250.577C197.979 252.206 197.348 253.756 196.426 255.131C195.085 257.241 193.173 258.927 190.912 259.992L195.107 268.784C195.252 269.082 195.336 269.406 195.355 269.737C195.374 270.069 195.327 270.4 195.218 270.713C195.108 271.026 194.937 271.314 194.716 271.561C194.494 271.807 194.226 272.008 193.926 272.15C193.596 272.284 193.24 272.344 192.884 272.326Z" fill="#E0E0E0"/>
<path d="M198.31 275.592C198.515 276.074 198.529 276.616 198.351 277.109C198.172 277.602 197.813 278.008 197.347 278.247C196.88 278.486 196.341 278.539 195.836 278.396C195.332 278.253 194.901 277.924 194.63 277.476C194.482 277.232 194.387 276.961 194.349 276.679C194.311 276.397 194.331 276.11 194.409 275.836C194.487 275.563 194.62 275.308 194.8 275.088C194.981 274.868 195.205 274.687 195.458 274.558C195.711 274.428 195.989 274.352 196.273 274.334C196.557 274.316 196.841 274.357 197.109 274.454C197.376 274.551 197.621 274.702 197.828 274.898C198.034 275.094 198.198 275.33 198.31 275.592Z" fill="#E0E0E0"/>
<path d="M123.854 234.345C123.52 234.346 123.192 234.252 122.91 234.074C122.627 233.896 122.401 233.641 122.258 233.34L118.49 225.427C118.37 225.183 118.307 224.914 118.307 224.642C118.307 224.37 118.37 224.101 118.49 223.857C118.612 223.614 118.79 223.404 119.008 223.243C119.226 223.081 119.479 222.973 119.746 222.927C120.486 222.778 121.186 222.478 121.804 222.046C122.422 221.613 122.945 221.059 123.339 220.415C123.715 219.858 123.976 219.23 124.105 218.57C124.235 217.91 124.23 217.231 124.092 216.572C123.903 215.918 123.583 215.309 123.151 214.782C122.719 214.255 122.185 213.821 121.58 213.507C120.937 213.128 120.225 212.88 119.486 212.778C118.746 212.677 117.993 212.724 117.272 212.917C115.871 213.444 114.69 214.429 113.921 215.714C113.152 216.998 112.841 218.505 113.039 219.988C113.104 220.451 112.983 220.921 112.701 221.295C112.42 221.668 112.001 221.914 111.538 221.979C111.075 222.044 110.606 221.922 110.232 221.641C109.859 221.36 109.613 220.941 109.548 220.478C109.255 218.159 109.77 215.809 111.005 213.824C112.24 211.839 114.12 210.339 116.33 209.576C117.508 209.248 118.74 209.16 119.953 209.317C121.165 209.475 122.334 209.875 123.389 210.493C124.403 211.048 125.294 211.803 126.008 212.712C126.723 213.621 127.246 214.665 127.546 215.781C127.799 216.909 127.818 218.078 127.602 219.214C127.386 220.35 126.94 221.43 126.29 222.387C125.365 223.823 124.061 224.975 122.522 225.716L125.449 231.82C125.551 232.027 125.611 232.253 125.625 232.484C125.64 232.715 125.608 232.947 125.532 233.165C125.456 233.384 125.337 233.585 125.183 233.757C125.028 233.929 124.841 234.069 124.632 234.169C124.388 234.282 124.123 234.342 123.854 234.345Z" fill="#F5F5F5"/>
<path d="M127.647 236.618C127.744 236.939 127.727 237.285 127.597 237.594C127.467 237.904 127.234 238.159 126.936 238.315C126.639 238.471 126.296 238.519 125.967 238.45C125.639 238.381 125.344 238.199 125.135 237.937C125.003 237.77 124.908 237.577 124.859 237.37C124.81 237.163 124.807 236.947 124.851 236.739C124.895 236.531 124.984 236.335 125.112 236.165C125.241 235.996 125.405 235.856 125.593 235.758C125.782 235.659 125.99 235.603 126.202 235.593C126.415 235.584 126.627 235.622 126.823 235.704C127.019 235.786 127.195 235.911 127.337 236.069C127.48 236.227 127.585 236.414 127.647 236.618Z" fill="#F5F5F5"/>
<path d="M437.251 238.64C437.395 238.941 437.45 239.277 437.41 239.609C437.37 239.94 437.237 240.253 437.025 240.511L431.499 247.331C431.325 247.542 431.106 247.71 430.858 247.823C430.61 247.936 430.339 247.992 430.067 247.985C429.795 247.977 429.528 247.907 429.288 247.778C429.048 247.649 428.842 247.466 428.685 247.244C428.244 246.636 427.681 246.128 427.032 245.749C426.383 245.371 425.663 245.131 424.917 245.046C424.257 244.94 423.583 244.97 422.935 245.134C422.287 245.298 421.679 245.593 421.149 246C420.637 246.446 420.221 246.99 419.925 247.601C419.629 248.212 419.46 248.877 419.429 249.555C419.355 250.294 419.428 251.041 419.644 251.752C419.859 252.463 420.213 253.125 420.685 253.699C421.752 254.746 423.141 255.401 424.626 255.561C426.112 255.72 427.609 255.374 428.874 254.579C429.062 254.414 429.283 254.291 429.523 254.219C429.763 254.147 430.015 254.127 430.263 254.16C430.511 254.193 430.749 254.278 430.961 254.41C431.174 254.543 431.355 254.719 431.494 254.927C431.633 255.135 431.726 255.371 431.766 255.618C431.807 255.865 431.794 256.117 431.729 256.359C431.664 256.601 431.548 256.826 431.389 257.019C431.231 257.212 431.032 257.369 430.808 257.48C428.839 258.738 426.497 259.28 424.175 259.015C421.853 258.749 419.694 257.693 418.06 256.023C417.259 255.096 416.653 254.019 416.275 252.854C415.898 251.689 415.757 250.461 415.862 249.241C415.933 248.09 416.236 246.965 416.752 245.933C417.268 244.902 417.986 243.985 418.863 243.237C419.772 242.52 420.819 241.997 421.938 241.701C423.057 241.405 424.225 241.342 425.369 241.516C427.067 241.734 428.669 242.426 429.992 243.513L434.249 238.251C434.395 238.065 434.576 237.911 434.782 237.797C434.988 237.683 435.215 237.611 435.45 237.587C435.684 237.562 435.921 237.585 436.146 237.654C436.371 237.722 436.581 237.836 436.761 237.987C436.971 238.166 437.138 238.389 437.251 238.64Z" fill="#F5F5F5"/>
<path d="M437.691 234.219C437.865 233.992 438.102 233.822 438.373 233.73C438.644 233.638 438.935 233.629 439.212 233.703C439.488 233.777 439.736 233.931 439.924 234.146C440.112 234.361 440.232 234.627 440.269 234.911C440.306 235.194 440.258 235.482 440.132 235.739C440.005 235.995 439.805 236.208 439.557 236.35C439.309 236.493 439.024 236.558 438.739 236.539C438.454 236.519 438.181 236.416 437.955 236.241C437.803 236.127 437.676 235.983 437.581 235.819C437.486 235.655 437.424 235.473 437.4 235.285C437.375 235.097 437.388 234.906 437.438 234.723C437.488 234.54 437.574 234.369 437.691 234.219Z" fill="#F5F5F5"/>
<path d="M418.838 74.7697C418.979 75.0716 419.032 75.4069 418.992 75.7377C418.952 76.0685 418.821 76.3814 418.612 76.6411L413.086 83.4612C412.914 83.6723 412.695 83.841 412.447 83.954C412.2 84.067 411.929 84.1214 411.657 84.1129C411.385 84.1044 411.118 84.0332 410.878 83.905C410.638 83.7767 410.431 83.5947 410.272 83.3733C409.828 82.7683 409.265 82.261 408.616 81.8829C407.968 81.5048 407.249 81.2639 406.504 81.1753C405.843 81.0736 405.169 81.1068 404.521 81.2731C403.873 81.4393 403.266 81.735 402.736 82.1424C402.226 82.5865 401.81 83.1291 401.514 83.7377C401.219 84.3464 401.049 85.0085 401.015 85.6843C400.941 86.4239 401.014 87.1708 401.23 87.8821C401.445 88.5934 401.799 89.2551 402.271 89.8291C403.333 90.8803 404.72 91.5398 406.206 91.6995C407.691 91.8592 409.187 91.5098 410.448 90.7083C410.839 90.4822 411.302 90.414 411.741 90.5177C412.181 90.6214 412.564 90.8892 412.813 91.2663C413.062 91.6433 413.157 92.1012 413.079 92.5461C413.001 92.9911 412.757 93.3895 412.395 93.6599C410.425 94.9188 408.081 95.46 405.759 95.1923C403.437 94.9246 401.278 93.8644 399.646 92.1904C398.841 91.267 398.231 90.19 397.853 89.0243C397.475 87.8585 397.337 86.6284 397.448 85.408C397.522 84.2573 397.825 83.1331 398.341 82.1018C398.856 81.0705 399.574 80.1533 400.45 79.4043C401.358 78.6902 402.403 78.1693 403.519 77.8734C404.636 77.5775 405.801 77.5129 406.944 77.6836C408.638 77.9126 410.237 78.6035 411.566 79.6806L415.824 74.418C415.97 74.234 416.152 74.0811 416.358 73.968C416.564 73.855 416.79 73.7841 417.024 73.7596C417.258 73.735 417.495 73.7573 417.72 73.825C417.945 73.8928 418.154 74.0047 418.336 74.1542C418.545 74.3216 418.716 74.5313 418.838 74.7697Z" fill="#F5F5F5"/>
<path d="M419.278 70.336C419.451 70.1091 419.689 69.939 419.96 69.8471C420.23 69.7552 420.522 69.7456 420.798 69.8197C421.074 69.8938 421.322 70.0482 421.511 70.2633C421.699 70.4784 421.819 70.7445 421.856 71.028C421.893 71.3114 421.845 71.5995 421.718 71.8557C421.591 72.1119 421.391 72.3247 421.144 72.4671C420.896 72.6096 420.611 72.6753 420.326 72.6559C420.041 72.6365 419.768 72.5329 419.541 72.3582C419.239 72.1246 419.041 71.7806 418.992 71.4016C418.942 71.0226 419.045 70.6394 419.278 70.336Z" fill="#F5F5F5"/>
<path d="M279.397 99.965C279.824 99.962 280.245 100.078 280.611 100.3C280.976 100.521 281.274 100.84 281.469 101.221L286.367 111.545C286.526 111.863 286.608 112.214 286.608 112.569C286.608 112.924 286.526 113.275 286.367 113.593C286.212 113.917 285.982 114.2 285.696 114.419C285.41 114.637 285.076 114.784 284.722 114.849C283.777 115.031 282.879 115.403 282.083 115.943C281.286 116.483 280.607 117.179 280.087 117.989C279.586 118.713 279.239 119.533 279.068 120.397C278.898 121.262 278.907 122.152 279.095 123.013C279.336 123.86 279.745 124.65 280.297 125.336C280.849 126.023 281.534 126.591 282.31 127.007C283.147 127.499 284.072 127.821 285.034 127.955C285.995 128.088 286.973 128.031 287.912 127.785C289.736 127.117 291.28 125.85 292.293 124.192C293.305 122.534 293.727 120.582 293.489 118.654C293.448 118.357 293.465 118.054 293.541 117.763C293.617 117.472 293.749 117.199 293.931 116.959C294.112 116.72 294.339 116.518 294.598 116.366C294.858 116.214 295.144 116.114 295.442 116.073C295.74 116.032 296.043 116.05 296.333 116.126C296.624 116.201 296.897 116.334 297.137 116.515C297.377 116.697 297.578 116.923 297.73 117.183C297.882 117.442 297.982 117.729 298.023 118.026C298.406 121.037 297.741 124.087 296.14 126.665C294.539 129.242 292.099 131.19 289.231 132.181C287.699 132.611 286.096 132.726 284.519 132.521C282.941 132.316 281.421 131.795 280.05 130.988C278.737 130.263 277.583 129.281 276.657 128.101C275.731 126.921 275.053 125.566 274.661 124.118C274.324 122.659 274.29 121.146 274.56 119.672C274.83 118.199 275.399 116.797 276.231 115.552C277.438 113.686 279.138 112.19 281.142 111.231L277.374 103.306C277.242 103.036 277.165 102.742 277.147 102.442C277.13 102.142 277.172 101.841 277.271 101.557C277.37 101.273 277.525 101.012 277.726 100.788C277.927 100.564 278.17 100.383 278.442 100.254C278.734 100.086 279.06 99.9869 279.397 99.965Z" fill="#E0E0E0"/>
<path d="M274.473 97.001C274.256 96.5583 274.22 96.0484 274.372 95.5795C274.525 95.1105 274.854 94.7194 275.29 94.489C275.731 94.2651 276.243 94.2254 276.714 94.3784C277.185 94.5314 277.576 94.8647 277.802 95.3054C277.914 95.5247 277.982 95.764 278.001 96.0096C278.021 96.2552 277.992 96.5023 277.916 96.7367C277.84 96.9712 277.719 97.1884 277.559 97.3759C277.4 97.5635 277.205 97.7178 276.985 97.8299C276.766 97.9421 276.526 98.0099 276.281 98.0296C276.035 98.0493 275.788 98.0204 275.554 97.9446C275.319 97.8688 275.102 97.7475 274.915 97.5878C274.727 97.428 274.573 97.2329 274.461 97.0135L274.473 97.001Z" fill="#E0E0E0"/>
<path d="M449.786 303.186C450.214 303.183 450.634 303.299 451 303.52C451.366 303.742 451.663 304.061 451.859 304.442L456.795 314.728C456.953 315.047 457.035 315.397 457.035 315.752C457.035 316.107 456.953 316.458 456.795 316.776C456.639 317.1 456.409 317.384 456.123 317.602C455.837 317.82 455.503 317.968 455.149 318.032C454.195 318.216 453.289 318.594 452.488 319.142C451.686 319.691 451.006 320.399 450.49 321.222C449.988 321.946 449.641 322.766 449.471 323.631C449.3 324.495 449.309 325.385 449.497 326.246C449.738 327.093 450.147 327.884 450.699 328.57C451.252 329.256 451.936 329.824 452.713 330.24C453.549 330.732 454.475 331.054 455.436 331.188C456.397 331.322 457.375 331.264 458.314 331.019C460.138 330.35 461.682 329.083 462.695 327.426C463.707 325.768 464.129 323.816 463.891 321.888C463.808 321.286 463.967 320.677 464.333 320.193C464.699 319.709 465.243 319.39 465.844 319.307C466.445 319.223 467.055 319.382 467.539 319.749C468.023 320.115 468.342 320.658 468.425 321.26C468.808 324.27 468.143 327.32 466.542 329.898C464.941 332.476 462.501 334.424 459.633 335.415C458.101 335.844 456.498 335.96 454.921 335.755C453.343 335.55 451.823 335.028 450.452 334.222C449.139 333.497 447.985 332.515 447.059 331.334C446.133 330.154 445.455 328.799 445.064 327.351C444.726 325.886 444.694 324.368 444.968 322.89C445.243 321.412 445.818 320.006 446.659 318.76C447.865 316.894 449.565 315.399 451.57 314.44L447.802 306.514C447.67 306.244 447.592 305.95 447.575 305.65C447.557 305.35 447.599 305.049 447.698 304.765C447.798 304.481 447.952 304.22 448.153 303.996C448.354 303.773 448.598 303.591 448.869 303.462C449.151 303.304 449.464 303.209 449.786 303.186Z" fill="#E0E0E0"/>
<path d="M444.863 300.184C444.646 299.741 444.609 299.232 444.762 298.763C444.914 298.294 445.243 297.903 445.679 297.672C446.121 297.448 446.633 297.408 447.104 297.561C447.575 297.715 447.966 298.048 448.191 298.488C448.418 298.932 448.459 299.446 448.306 299.92C448.153 300.393 447.818 300.787 447.375 301.013C446.932 301.24 446.417 301.281 445.943 301.128C445.47 300.975 445.077 300.64 444.85 300.197L444.863 300.184Z" fill="#E0E0E0"/>
<path d="M484.074 369.666C484.074 369.666 474.416 362.243 460.336 385.605C446.256 408.966 440.566 422.606 440.566 422.606C440.566 422.606 436.937 427.455 433.684 423.862C430.431 420.27 426.336 410.536 420.282 411.805C414.002 413.124 411.49 419.843 411.942 430.017C412.394 440.19 412.57 462.497 412.583 464.519C412.595 466.541 411.251 469.317 408.651 467.245C406.052 465.172 391.532 446.521 383.079 453.931C374.626 461.341 380.567 489.463 381.133 492.553C381.698 495.643 381.032 496.899 379.537 497.577C378.043 498.255 373.772 491.485 369.427 486.348C365.081 481.211 359.14 476.012 354.631 480.696C350.122 485.381 347.308 505.955 364.591 540.984L373.659 556.672L391.859 556.961C430.795 555.202 447.525 542.806 449.446 536.588C451.368 530.371 443.945 527.683 437.351 526.365C430.757 525.046 422.781 524.543 422.631 522.923C422.48 521.303 423.234 520.097 426.223 519.155C429.212 518.213 456.693 509.785 459.118 498.808C461.542 487.83 438.167 484.15 435.09 482.869C432.013 481.588 433.834 479.101 435.58 478.109C437.326 477.117 456.932 466.516 466.113 462.007C475.295 457.498 479.929 452.047 478.033 445.918C476.224 440.002 465.699 441.12 461.002 439.989C456.304 438.859 458.816 433.32 458.816 433.32C458.816 433.32 468.023 421.752 481.675 398.152C495.328 374.552 483.861 369.603 483.861 369.603" fill="#EBEBEB"/>
<path d="M471.426 390.616L471.163 391.131C470.962 391.47 470.698 391.96 470.346 392.588L467.156 398.152C464.38 403.013 460.323 410.034 455.274 418.675C445.226 435.983 431.021 459.759 415.308 485.972C399.596 512.184 385.39 535.948 375.204 553.193L363.159 573.628C361.752 576.027 360.647 577.898 359.881 579.179L359.027 580.624L358.713 581.101C358.792 580.929 358.88 580.761 358.977 580.599L359.793 579.129L362.971 573.515C365.746 568.654 369.803 561.646 374.865 552.992C384.913 535.697 399.106 511.908 414.831 485.683C430.556 459.457 444.736 435.719 454.922 418.474L466.968 398.039C468.387 395.64 469.48 393.769 470.246 392.487C470.622 391.872 470.899 391.395 471.112 391.043L471.426 390.616Z" fill="#E0E0E0"/>
<path d="M425.47 425.709C425.643 426.111 425.77 426.533 425.847 426.965C426.047 427.794 426.311 428.974 426.613 430.456C427.228 433.395 427.969 437.49 428.71 442.024C429.451 446.558 430.067 450.54 430.557 453.642C430.783 455.024 430.984 456.154 431.134 457.146C431.232 457.558 431.287 457.979 431.298 458.402C431.131 457.997 431.005 457.576 430.921 457.146C430.72 456.33 430.456 455.137 430.167 453.655C429.577 450.703 428.911 446.596 428.158 442.062C427.404 437.528 426.738 433.559 426.223 430.481C425.985 429.087 425.796 427.969 425.633 426.965C425.535 426.553 425.481 426.132 425.47 425.709Z" fill="#E0E0E0"/>
<path d="M432.943 458.892C432.943 458.741 441.283 456.832 451.633 454.647C461.982 452.461 470.473 450.791 470.473 450.879C470.473 450.967 462.133 452.939 451.771 455.124C441.409 457.31 432.968 459.043 432.943 458.892Z" fill="#E0E0E0"/>
<path d="M406.943 498.067C407.386 498.02 407.832 498.02 408.275 498.067L411.905 498.343C414.969 498.569 419.202 498.858 423.874 499.009C428.547 499.16 432.792 499.172 435.869 499.147H439.499C439.945 499.088 440.397 499.088 440.843 499.147C440.405 499.244 439.959 499.299 439.511 499.31C438.657 499.373 437.414 499.449 435.869 499.511C432.804 499.637 428.547 499.7 423.862 499.511C419.177 499.323 414.932 499.009 411.867 498.682C410.335 498.507 409.104 498.356 408.25 498.23C407.81 498.223 407.372 498.169 406.943 498.067Z" fill="#E0E0E0"/>
<path d="M393.63 469.543C393.888 469.866 394.103 470.22 394.27 470.598C394.685 471.415 395.212 472.407 395.815 473.587C397.071 476.099 398.83 479.641 400.726 483.535C402.623 487.429 404.293 490.983 405.474 493.583C406.027 494.839 406.491 495.819 406.856 496.648C407.054 497.011 407.202 497.4 407.295 497.803C407.054 497.471 406.844 497.118 406.667 496.748L405.122 493.759C403.866 491.247 402.095 487.705 400.211 483.811C398.327 479.918 396.644 476.363 395.451 473.763L394.069 470.699C393.885 470.329 393.738 469.942 393.63 469.543Z" fill="#E0E0E0"/>
<path d="M366.337 501.207C366.64 501.639 366.905 502.097 367.128 502.576L369.125 506.344C370.796 509.584 373.044 514.081 375.518 519.055C377.993 524.028 380.191 528.537 381.798 531.828L383.632 535.722C383.871 536.195 384.072 536.687 384.235 537.191C383.924 536.762 383.655 536.303 383.431 535.822L381.434 532.054C379.776 528.814 377.515 524.33 375.054 519.356C372.592 514.382 370.381 509.861 368.774 506.582L366.94 502.676C366.688 502.209 366.486 501.716 366.337 501.207Z" fill="#E0E0E0"/>
<path d="M384.009 536.312C384.573 536.263 385.14 536.263 385.704 536.312L390.314 536.488C394.208 536.639 399.583 536.814 405.524 536.852C411.465 536.89 416.828 536.789 420.747 536.676L425.356 536.563C425.92 536.512 426.488 536.512 427.052 536.563C426.497 536.672 425.934 536.735 425.369 536.752C424.289 536.852 422.706 536.953 420.759 537.053C416.866 537.254 411.478 537.43 405.524 537.38C399.571 537.329 394.22 537.103 390.301 536.865C388.355 536.726 386.772 536.613 385.692 536.5C385.127 536.485 384.564 536.422 384.009 536.312Z" fill="#E0E0E0"/>
<path d="M543.408 576.956C543.408 577.145 441.572 577.283 315.984 577.283C190.397 577.283 88.5352 577.145 88.5352 576.956C88.5352 576.768 190.347 576.63 315.984 576.63C441.622 576.63 543.408 576.78 543.408 576.956Z" fill="#263238"/>
<path d="M433.17 499.323L414.041 408.087C414.041 408.087 402.825 364.127 364.215 348.954L361.553 348.138L357.785 346.995C356.227 346.392 349.897 344.383 348.227 343.855C296.178 325.819 282.362 330.516 228.128 349.017C228.128 349.017 204.025 355.511 192.344 386.936C180.664 418.361 158.319 467.533 158.319 467.533L212.428 486.65L222.802 471.239V576.655H371.638L367.531 528.123L366.815 468.35" fill="#0061FF"/>
<path d="M281.671 354.619C281.303 355.056 280.881 355.444 280.415 355.775C279.918 356.225 279.393 356.644 278.845 357.031C278.147 357.566 277.421 358.065 276.672 358.525C274.736 359.753 272.698 360.812 270.58 361.69C267.977 362.747 265.282 363.563 262.529 364.127C259.766 364.638 256.962 364.899 254.152 364.906C251.86 364.886 249.575 364.672 247.319 364.265C246.34 364.127 245.498 363.876 244.744 363.7C244.092 363.561 243.45 363.377 242.823 363.147C242.274 363.008 241.743 362.806 241.24 362.544C241.24 362.419 243.564 363.223 247.395 363.8C249.632 364.131 251.89 364.295 254.152 364.29C256.921 364.252 259.682 363.975 262.404 363.461C265.116 362.91 267.775 362.129 270.354 361.125C272.452 360.276 274.484 359.273 276.433 358.123C279.774 356.114 281.595 354.519 281.671 354.619Z" fill="#FAFAFA"/>
<g opacity="0.3">
<path d="M222.853 511.355L235.048 525.448H247.043V540.783L371.073 569.47L370.068 557.526L253.373 517.459H233.817L224.397 509.923L222.853 511.355Z" fill="black"/>
</g>
<path d="M259.377 498.808L249.027 496.899C249.027 496.899 224.51 470.071 219.913 469.744C216.145 469.43 195.258 469.631 187.998 469.744C187.332 469.744 186.693 470.009 186.222 470.48C185.751 470.951 185.486 471.59 185.486 472.256C185.486 472.909 185.74 473.537 186.195 474.006C186.65 474.475 187.27 474.748 187.923 474.768L212.566 475.723L212.679 477.707L187.998 478.034C185.486 478.222 183.879 482.204 191.93 482.919L212.566 483.66V484.916L191.641 487.843C190.573 487.994 187.797 488.534 187.772 489.601C187.772 489.601 186.516 492.226 192.47 492.967C194.517 493.219 212.679 492.616 212.679 492.616L211.988 494.249L193.148 498.305C192.487 498.448 191.905 498.836 191.518 499.39C191.131 499.945 190.968 500.625 191.063 501.295C191.157 501.976 191.51 502.594 192.047 503.022C192.585 503.45 193.267 503.655 193.952 503.593L214.048 501.722L233.817 517.472H260.193L259.377 498.808Z" fill="#FFBE9D"/>
<path d="M433.169 499.323L372.969 511.167L366.865 468.35" fill="#0061FF"/>
<path d="M364.956 500.956L253.373 497.376V535.935L327.402 550.643L379.4 558.92C411.704 558.92 437.54 529.266 432.541 497.376H432.403L364.956 500.956Z" fill="#0061FF"/>
<path d="M395.64 500.252C395.162 500.321 394.679 500.355 394.195 500.353L390.051 500.466L374.79 500.742C361.916 500.931 344.119 501.144 324.45 500.956C304.781 500.767 286.983 500.051 274.122 499.185C267.691 498.758 262.491 498.343 258.912 497.929L254.779 497.502C254.298 497.471 253.819 497.404 253.348 497.301C253.833 497.262 254.32 497.262 254.805 497.301L258.937 497.564C262.529 497.816 267.729 498.142 274.16 498.494C287.021 499.197 304.806 499.813 324.462 500.014C344.119 500.215 361.904 500.014 374.79 500.014H390.051H394.195C394.684 500.043 395.168 500.123 395.64 500.252Z" fill="#263238"/>
<path d="M253.385 497.703C253.402 497.928 253.402 498.155 253.385 498.381C253.385 498.867 253.385 499.532 253.385 500.378C253.385 502.174 253.385 504.736 253.461 507.989C253.461 514.583 253.536 523.953 253.599 535.244L253.373 534.968C265.933 537.669 281.08 541.022 297.333 544.426C319.614 549.148 339.911 552.866 354.656 555.152C362.042 556.282 368.02 557.111 372.165 557.664L376.925 558.292L378.181 558.468C378.323 558.476 378.463 558.506 378.596 558.556H378.169L376.913 558.443L372.127 557.94C367.983 557.463 361.979 556.684 354.543 555.629C339.76 553.469 319.438 549.814 297.144 545.091C280.879 541.688 265.744 538.297 253.184 535.533H252.971V535.32C252.971 524.016 253.046 514.659 253.071 508.065C253.071 504.812 253.071 502.249 253.147 500.453C253.147 499.616 253.147 498.95 253.147 498.456C253.186 498.194 253.266 497.94 253.385 497.703Z" fill="#263238"/>
<path d="M243.852 392.224C243.819 391.595 243.844 390.964 243.928 390.34C244.016 389.084 244.129 387.388 244.179 385.228C244.327 379.606 243.935 373.982 243.011 368.435C241.868 361.979 240.424 356.089 238.175 352.421C237.325 350.958 236.193 349.678 234.847 348.653C233.867 347.962 233.239 347.698 233.264 347.648C233.29 347.598 233.44 347.648 233.742 347.799C234.18 347.972 234.6 348.186 234.998 348.44C236.445 349.427 237.666 350.711 238.577 352.208C239.909 354.398 240.924 356.766 241.592 359.241C244.041 367.692 245.076 376.489 244.656 385.278C244.543 387.438 244.355 389.197 244.204 390.39C244.147 391.011 244.029 391.625 243.852 392.224Z" fill="#263238"/>
<path d="M366.551 358.324C366.74 358.324 366.878 383.959 366.878 415.585C366.878 447.211 366.74 472.846 366.551 472.846C366.363 472.846 366.225 447.211 366.225 415.585C366.225 383.959 366.375 358.324 366.551 358.324Z" fill="#263238"/>
<path d="M405.06 487.114C405.06 487.228 403.164 487.177 400.149 487.542C398.384 487.77 396.634 488.109 394.912 488.559C392.818 489.136 390.769 489.866 388.782 490.744C386.804 491.658 384.898 492.721 383.08 493.922C381.608 494.912 380.202 495.999 378.873 497.175C376.599 499.197 375.393 500.654 375.293 500.579C375.514 500.192 375.775 499.83 376.072 499.499C376.85 498.557 377.689 497.667 378.584 496.836C379.886 495.589 381.285 494.447 382.766 493.42C384.596 492.177 386.524 491.085 388.531 490.154C390.56 489.255 392.661 488.528 394.811 487.981C396.564 487.543 398.349 487.245 400.149 487.089C401.355 486.966 402.568 486.929 403.779 486.976C404.21 486.969 404.641 487.015 405.06 487.114Z" fill="#263238"/>
<g opacity="0.3">
<path d="M244.92 492.453C263.76 481.224 275.466 462.635 286.933 443.971C298.4 425.307 309.089 405.726 324.99 390.679C332.287 383.758 340.828 377.93 343.528 368.234L314.942 390.955L235.312 482.53L244.92 492.453Z" fill="black"/>
</g>
<path d="M193.273 443.368C193.273 443.607 188.777 443.431 183.64 445.189C181.458 445.973 179.335 446.909 177.284 447.99C176.457 448.502 175.577 448.923 174.659 449.246C175.388 448.597 176.193 448.04 177.058 447.588C179.07 446.365 181.205 445.355 183.426 444.574C185.665 443.814 187.998 443.37 190.359 443.255C191.331 443.145 192.313 443.183 193.273 443.368Z" fill="#263238"/>
<path d="M193.273 443.368C193.273 443.607 188.777 443.431 183.64 445.189C181.458 445.973 179.335 446.909 177.284 447.99C176.457 448.502 175.577 448.923 174.659 449.246C175.388 448.597 176.193 448.04 177.058 447.588C179.07 446.365 181.205 445.355 183.426 444.574C185.665 443.814 187.998 443.37 190.359 443.255C191.331 443.145 192.313 443.183 193.273 443.368Z" fill="#263238"/>
<path d="M366.074 484.364C364.735 483.491 363.275 482.818 361.741 482.367C358.789 481.45 354.205 481.463 348.892 483.171C343.579 484.879 338.053 488.509 331.22 491.347C327.661 492.906 323.799 493.649 319.916 493.52C315.754 493.123 311.716 491.883 308.047 489.878C304.279 487.969 300.699 485.833 297.095 484.163C293.644 482.496 289.929 481.442 286.117 481.048C279.644 480.44 273.128 481.617 267.277 484.452C263.323 486.315 259.766 488.925 256.802 492.139L255.433 493.683L254.529 494.939L253.964 495.668L253.75 495.906C253.784 495.807 253.835 495.713 253.901 495.63C254.039 495.429 254.215 495.178 254.416 494.864L255.282 493.608L256.614 492.025C259.534 488.702 263.092 485.998 267.076 484.075C269.804 482.709 272.702 481.712 275.692 481.111C279.125 480.379 282.648 480.172 286.142 480.495C290.008 480.874 293.778 481.924 297.283 483.598C300.938 485.293 304.492 487.429 308.26 489.313C311.851 491.281 315.803 492.503 319.878 492.905C323.682 493.05 327.469 492.332 330.956 490.807C337.714 488.044 343.303 484.288 348.716 482.756C354.13 481.224 358.764 481.136 361.766 482.141C362.917 482.489 364.016 482.992 365.032 483.635L365.798 484.188C365.999 484.289 366.087 484.351 366.074 484.364Z" fill="#FAFAFA"/>
<path d="M420.634 437.904C419.898 437.685 419.14 437.542 418.374 437.477C416.274 437.509 414.227 438.136 412.47 439.286C410.147 440.542 407.911 442.954 404.746 444.725C403.083 445.704 401.173 446.184 399.245 446.106C397.214 445.898 395.247 445.274 393.467 444.272C391.621 443.343 389.913 442.3 388.142 441.597C386.443 440.898 384.668 440.401 382.854 440.115C381.214 439.85 379.551 439.762 377.893 439.851C376.442 439.898 374.999 440.087 373.585 440.416C371.528 440.867 369.536 441.576 367.656 442.527C366.313 443.205 365.634 443.67 365.597 443.619C365.559 443.569 365.747 443.469 366.061 443.242C366.53 442.901 367.021 442.59 367.531 442.313C370.697 440.536 374.229 439.509 377.855 439.311C381.447 439.075 385.045 439.655 388.38 441.007C390.214 441.723 391.947 442.765 393.756 443.682C395.46 444.642 397.339 445.249 399.282 445.466C401.092 445.552 402.888 445.116 404.457 444.21C407.522 442.527 409.82 440.19 412.232 438.897C414.074 437.748 416.216 437.171 418.386 437.239C418.973 437.285 419.549 437.42 420.094 437.641C420.284 437.707 420.466 437.795 420.634 437.904Z" fill="#FAFAFA"/>
<path d="M365.395 420.76C365.106 420.737 364.82 420.686 364.541 420.609C364.265 420.609 363.926 420.459 363.511 420.396L362.105 420.207C359.088 419.951 356.051 420.262 353.149 421.124C348.861 422.453 344.752 424.305 340.916 426.638C336.248 429.625 331.376 432.277 326.334 434.576C323.676 435.718 320.874 436.487 318.006 436.862C315.316 437.19 312.588 437.002 309.968 436.309C307.634 435.627 305.372 434.723 303.211 433.609C301.176 432.604 299.317 431.612 297.584 430.795C294.901 429.394 291.978 428.512 288.968 428.196C288.13 428.146 287.289 428.171 286.456 428.271C286.172 428.299 285.886 428.299 285.602 428.271C285.873 428.174 286.156 428.111 286.443 428.082C287.272 427.934 288.113 427.867 288.955 427.882C292.02 428.104 295.009 428.937 297.747 430.331C299.518 431.122 301.389 432.089 303.424 433.069C305.559 434.147 307.792 435.017 310.094 435.669C312.643 436.325 315.293 436.496 317.906 436.171C320.718 435.802 323.465 435.046 326.07 433.923C331.471 431.7 336.118 428.61 340.589 426.085C344.483 423.75 348.657 421.919 353.011 420.634C355.966 419.801 359.056 419.557 362.105 419.918L363.524 420.17C363.938 420.258 364.265 420.371 364.541 420.446C364.836 420.521 365.122 420.626 365.395 420.76Z" fill="#FAFAFA"/>
<path d="M404.294 382.075C403.88 382.389 403.429 382.651 402.95 382.854C402.058 383.319 400.777 383.972 399.182 384.688C397.261 385.546 395.269 386.235 393.229 386.748C390.71 387.381 388.098 387.56 385.517 387.275C382.779 386.986 380.254 386.408 377.981 386.094C375.941 385.766 373.865 385.727 371.814 385.981C369.928 386.25 368.121 386.918 366.514 387.941C366.514 387.941 366.602 387.815 366.79 387.639C367.089 387.392 367.403 387.166 367.732 386.961C368.97 386.234 370.333 385.744 371.751 385.517C373.833 385.209 375.949 385.209 378.031 385.517C380.392 385.806 382.93 386.371 385.567 386.647C390.955 387.288 395.728 385.567 398.994 384.286C400.639 383.633 401.958 383.03 402.875 382.653C403.327 382.413 403.803 382.219 404.294 382.075Z" fill="#FAFAFA"/>
<path d="M241.893 402.988C241.185 402.696 240.434 402.518 239.67 402.46C237.563 402.504 235.533 403.256 233.905 404.595C232.825 405.362 231.695 406.316 230.351 407.195C228.903 408.134 227.286 408.783 225.59 409.104C221.697 409.658 217.726 409.181 214.073 407.723C210.179 406.316 206.7 404.533 203.359 403.352C201.794 402.798 200.185 402.378 198.549 402.096C197.123 401.846 195.674 401.758 194.228 401.832C192.122 401.901 190.06 402.451 188.199 403.44C186.943 404.168 186.303 404.759 186.265 404.696C186.227 404.633 186.391 404.533 186.68 404.256C187.109 403.86 187.576 403.506 188.074 403.201C189.935 402.103 192.033 401.47 194.19 401.355C195.675 401.253 197.166 401.316 198.637 401.543C200.312 401.815 201.96 402.235 203.56 402.799C206.951 403.955 210.456 405.738 214.299 407.12C217.843 408.539 221.693 409.02 225.477 408.514C227.107 408.229 228.664 407.627 230.062 406.743C231.381 405.914 232.574 404.985 233.641 404.231C235.357 402.874 237.496 402.162 239.683 402.222C240.272 402.258 240.849 402.412 241.378 402.674C241.568 402.746 241.742 402.853 241.893 402.988Z" fill="#FAFAFA"/>
<path d="M312.644 499.197C312.644 499.197 312.795 499.298 313.046 499.536C313.411 499.895 313.743 500.286 314.038 500.704C315.392 502.64 316.15 504.929 316.22 507.29C316.289 509.652 315.666 511.981 314.427 513.993C312.757 516.693 309.906 518.841 308.311 521.943C307.566 523.458 307.346 525.176 307.683 526.829C308.034 528.391 308.582 529.902 309.316 531.326C310.685 534.064 311.953 536.727 311.903 539.188C311.916 540.149 311.712 541.1 311.305 541.97C310.899 542.84 310.3 543.607 309.554 544.212C309.142 544.522 308.672 544.749 308.173 544.878C307.821 544.941 307.645 544.953 307.632 544.878C308.27 544.673 308.868 544.363 309.403 543.961C310.07 543.353 310.598 542.609 310.951 541.779C311.305 540.949 311.475 540.052 311.451 539.151C311.451 536.84 310.195 534.302 308.775 531.552C308.001 530.089 307.422 528.531 307.055 526.917C306.682 525.125 306.916 523.261 307.72 521.617C308.573 520.064 309.629 518.632 310.86 517.359C311.978 516.188 312.999 514.927 313.912 513.591C315.375 511.307 315.984 508.581 315.633 505.892C315.418 504.07 314.801 502.32 313.825 500.767C313.121 499.75 312.594 499.235 312.644 499.197Z" fill="#FAFAFA"/>
<path d="M365.295 554.336C365.12 554.217 364.96 554.078 364.818 553.921C364.409 553.48 364.082 552.969 363.851 552.414C363.098 550.297 363.21 547.968 364.165 545.933C364.757 544.518 365.585 543.214 366.614 542.077C367.682 540.821 368.938 539.64 370.219 538.309C371.575 537.008 372.75 535.529 373.71 533.913C374.654 532.143 375.222 530.198 375.381 528.198C375.808 524.066 375.054 520.097 374.853 516.442C374.499 513.181 374.929 509.882 376.109 506.821C376.948 504.768 378.389 503.016 380.242 501.797C380.748 501.476 381.293 501.219 381.862 501.031C382.055 500.954 382.258 500.908 382.465 500.893C381.741 501.209 381.044 501.583 380.38 502.011C378.639 503.277 377.303 505.023 376.536 507.035C375.46 510.042 375.103 513.26 375.494 516.43C375.733 520.034 376.511 524.028 376.084 528.299C375.91 530.384 375.307 532.411 374.313 534.252C373.314 535.943 372.079 537.482 370.646 538.824C368.033 541.336 365.622 543.609 364.592 546.159C363.836 547.432 363.498 548.91 363.624 550.385C363.75 551.861 364.334 553.259 365.295 554.386V554.336Z" fill="#FAFAFA"/>
<path d="M371.776 570.99C371.342 571.338 370.87 571.638 370.369 571.882C368.949 572.601 367.398 573.028 365.81 573.138C363.297 573.348 360.767 573.066 358.362 572.309C355.194 571.29 352.161 569.89 349.331 568.139C345.956 566.003 342.376 564.21 338.643 562.788C334.273 561.432 329.619 561.272 325.166 562.324C320.244 563.537 315.442 565.198 310.822 567.285C305.834 569.606 300.63 571.431 295.286 572.736C292.541 573.309 289.725 573.466 286.933 573.201C284.211 572.908 281.564 572.125 279.121 570.89C274.323 568.491 270.48 565.012 266.561 562.173C264.683 560.743 262.683 559.482 260.582 558.405L259.05 557.677C258.535 557.451 258.008 557.287 257.493 557.086C256.472 556.708 255.427 556.397 254.365 556.157C250.479 555.247 246.456 555.081 242.509 555.667C239.251 556.133 236.08 557.081 233.101 558.48C232.435 558.769 231.845 559.146 231.23 559.448C230.651 559.74 230.093 560.072 229.559 560.44C229.044 560.791 228.542 561.105 228.077 561.432L226.821 562.424C226.104 562.981 225.424 563.586 224.786 564.233C224.29 564.674 223.828 565.152 223.405 565.665L222.576 566.582C222.387 566.783 222.287 566.883 222.274 566.87L222.526 566.531L223.304 565.577C223.714 565.049 224.163 564.554 224.648 564.095C225.278 563.433 225.949 562.812 226.658 562.236L227.914 561.193L229.408 560.176C229.944 559.804 230.502 559.464 231.079 559.159C231.682 558.832 232.335 558.455 232.95 558.154C235.933 556.68 239.122 555.668 242.408 555.152C246.408 554.513 250.494 554.653 254.441 555.566C255.524 555.805 256.589 556.115 257.631 556.496C258.171 556.697 258.711 556.86 259.238 557.086L260.796 557.827C262.929 558.903 264.963 560.163 266.875 561.595C270.831 564.446 274.662 567.875 279.36 570.224C281.715 571.421 284.269 572.179 286.896 572.46C289.625 572.724 292.378 572.567 295.06 571.995C300.352 570.731 305.509 568.956 310.458 566.695C315.109 564.572 319.949 562.89 324.915 561.671C329.485 560.611 334.257 560.797 338.731 562.211C342.489 563.667 346.091 565.497 349.482 567.674C352.264 569.437 355.25 570.854 358.375 571.894C360.739 572.666 363.228 572.981 365.71 572.824C367.278 572.727 368.813 572.331 370.231 571.656C371.261 571.304 371.776 570.952 371.776 570.99Z" fill="#FAFAFA"/>
<path d="M301.867 361.489C308.612 361.821 315.224 359.527 320.314 355.089C325.405 350.652 328.58 344.416 329.172 337.688C329.901 329.399 330.428 322.315 330.428 322.315C330.428 322.315 351.78 321.775 354.807 300.837C357.834 279.9 360.472 231.267 360.472 231.267C349.214 224.594 336.378 221.048 323.291 220.995C310.204 220.942 297.34 224.384 286.029 230.966L282.6 232.963L277.099 333.983C276.911 337.417 277.403 340.855 278.547 344.098C279.692 347.342 281.466 350.327 283.767 352.883C286.069 355.439 288.852 357.515 291.958 358.992C295.065 360.469 298.432 361.318 301.867 361.489Z" fill="#FFBE9D"/>
<path d="M333.443 286.368C333.443 286.129 335.277 286.004 338.241 285.979C339.007 285.979 339.623 285.903 339.723 285.501C339.849 284.747 339.762 283.973 339.472 283.266L337.94 277.099C335.867 268.307 334.549 261.135 335.001 261.035C335.453 260.934 337.513 267.955 339.56 276.722C340.037 278.857 340.502 280.904 340.954 282.914C341.314 283.951 341.314 285.08 340.954 286.117C340.808 286.39 340.6 286.625 340.347 286.804C340.094 286.982 339.803 287.1 339.497 287.147C339.081 287.205 338.658 287.205 338.241 287.147C335.239 286.87 333.431 286.594 333.443 286.368Z" fill="#263238"/>
<path d="M330.555 322.026C320.836 320.959 311.654 317.024 304.179 310.722C304.179 310.722 308.688 326.661 329.851 327.49L330.555 322.026Z" fill="#EB996E"/>
<path d="M360.196 236.593C360.196 236.593 347.008 242.107 330.743 232.825C320.067 226.746 307.431 223.367 304.48 225.414C301.528 227.462 300.322 238.741 289.269 241.441C289.269 241.441 288.83 263.057 280.264 261.813C271.698 260.57 278.933 227.449 278.933 227.449L300.536 218.331L323.734 215.266L345.212 219.511L361.728 225.025L360.196 236.593Z" fill="#263238"/>
<path d="M282.362 254.968C282.023 254.767 268.546 248.839 267.101 263.233C265.657 277.626 280.44 276.069 280.503 275.667C280.566 275.265 282.362 254.968 282.362 254.968Z" fill="#FFBE9D"/>
<path d="M276.634 269.827C276.634 269.827 276.371 269.977 275.931 270.128C275.309 270.329 274.633 270.279 274.047 269.99C272.578 269.286 271.535 266.737 271.723 264.137C271.802 262.901 272.159 261.699 272.766 260.62C272.945 260.184 273.227 259.797 273.588 259.493C273.949 259.189 274.378 258.977 274.838 258.874C275.135 258.819 275.442 258.872 275.702 259.024C275.963 259.177 276.16 259.418 276.258 259.703C276.408 260.13 276.258 260.407 276.371 260.444C276.484 260.482 276.697 260.231 276.634 259.628C276.596 259.259 276.426 258.916 276.157 258.661C275.792 258.325 275.309 258.145 274.813 258.158C274.21 258.221 273.634 258.436 273.137 258.783C272.64 259.13 272.24 259.598 271.975 260.143C271.241 261.331 270.81 262.681 270.719 264.074C270.518 266.975 271.749 269.839 273.771 270.643C274.145 270.792 274.548 270.856 274.95 270.83C275.351 270.803 275.743 270.688 276.094 270.492C276.572 270.178 276.685 269.864 276.634 269.827Z" fill="#EB996E"/>
<path d="M298.84 227.738C296.028 230.998 292.807 233.881 289.257 236.316C285.65 238.755 281.233 239.688 276.948 238.916C272.765 237.949 269.06 234.332 268.884 230.024C268.708 225.716 272.916 221.546 277.111 222.488C276.396 222.498 275.69 222.338 275.05 222.02C274.41 221.702 273.855 221.236 273.432 220.66C273.009 220.084 272.729 219.415 272.617 218.709C272.504 218.004 272.562 217.281 272.786 216.602C273.009 215.924 273.392 215.308 273.901 214.807C274.411 214.306 275.033 213.934 275.715 213.722C276.398 213.51 277.121 213.465 277.825 213.589C278.529 213.713 279.193 214.004 279.761 214.437C276.106 213.746 275.704 207.956 278.606 205.645C281.507 203.334 285.777 203.836 289.206 205.23C292.635 206.625 295.813 208.785 299.443 209.564C305.132 210.82 310.973 208.421 316.009 205.494C321.046 202.568 325.819 199.001 331.433 197.443C338.316 195.547 345.764 196.941 352.345 199.704C357.916 201.836 362.819 205.412 366.551 210.066C370.105 214.814 371.864 221.119 370.319 226.834C368.774 232.548 363.423 237.296 357.482 237.321C357.482 237.321 344.156 238.653 333.304 230.602C322.453 222.551 299.543 223.568 299.543 223.568L298.84 227.738Z" fill="#263238"/>
<path d="M278.832 211.008C278.832 211.008 279.096 211.284 279.661 211.674C280.226 212.063 281.105 212.603 282.248 213.256C285.534 215.041 289.021 216.429 292.635 217.389C298.015 218.828 303.597 219.358 309.152 218.959C315.432 218.544 322.076 216.447 328.972 214.826C335.867 213.206 342.662 212.314 348.565 213.746C354.468 215.178 359.09 218.67 361.125 222.701C362.799 225.921 363.19 229.655 362.218 233.151C361.767 234.411 361.208 235.63 360.547 236.794C360.547 236.794 360.849 236.58 361.301 236.04C361.925 235.218 362.424 234.308 362.783 233.34C363.413 231.535 363.678 229.622 363.561 227.714C363.445 225.805 362.95 223.939 362.105 222.224C360.02 217.778 355.084 213.872 348.892 212.365C342.7 210.857 335.553 211.611 328.595 213.332C321.637 215.052 315.13 217.1 309.026 217.539C303.614 217.973 298.167 217.549 292.887 216.283C283.781 214.098 278.907 210.669 278.832 211.008Z" fill="#455A64"/>
<path d="M272.301 233.227C272.151 233.302 272.615 234.709 274.173 236.505C276.242 238.835 279 240.445 282.047 241.102C285.093 241.759 288.27 241.429 291.116 240.16C293.276 239.18 294.281 238.087 294.168 237.949C294.055 237.811 292.824 238.489 290.727 239.205C288.031 240.1 285.145 240.256 282.369 239.657C279.592 239.058 277.027 237.727 274.939 235.801C273.306 234.269 272.552 233.101 272.301 233.227Z" fill="#455A64"/>
<path d="M276.798 226.08C276.434 226.256 277.539 228.868 280.327 230.79C283.115 232.712 285.941 232.837 285.967 232.423C285.992 232.008 283.656 231.242 281.194 229.522C278.732 227.801 277.175 225.879 276.798 226.08Z" fill="#455A64"/>
<path d="M367.267 246.176C367.456 246.176 367.87 245.51 367.971 244.217C368.078 242.51 367.632 240.814 366.7 239.379C365.768 237.945 364.399 236.849 362.796 236.254C361.54 235.827 360.761 235.915 360.724 236.103C360.598 236.517 363.562 237.359 365.408 240.223C367.255 243.086 366.84 246.176 367.267 246.176Z" fill="#263238"/>
<path d="M374.728 225.553C374.301 225.377 372.719 229.182 368.951 232.322C365.183 235.462 361.226 236.492 361.339 236.944C361.452 237.397 365.873 236.944 369.955 233.503C374.037 230.062 375.13 225.603 374.728 225.553Z" fill="#455A64"/>
<path d="M352.936 263.17C352.838 264.009 352.415 264.776 351.757 265.307C351.1 265.838 350.26 266.09 349.419 266.008C349.006 265.988 348.601 265.885 348.228 265.705C347.856 265.526 347.522 265.273 347.249 264.963C346.975 264.653 346.766 264.291 346.634 263.899C346.502 263.507 346.45 263.092 346.48 262.68C346.581 261.842 347.005 261.076 347.662 260.546C348.319 260.016 349.157 259.763 349.997 259.841C350.41 259.862 350.815 259.965 351.188 260.144C351.561 260.324 351.894 260.576 352.168 260.886C352.442 261.196 352.651 261.558 352.783 261.95C352.915 262.342 352.967 262.757 352.936 263.17Z" fill="#263238"/>
<path d="M355.448 262.893C354.996 263.258 352.798 261.135 349.344 260.695C345.89 260.256 343.127 261.65 342.8 261.185C342.65 260.972 343.152 260.268 344.358 259.603C345.99 258.765 347.841 258.45 349.658 258.698C351.461 258.919 353.143 259.717 354.456 260.972C355.448 261.926 355.674 262.73 355.448 262.893Z" fill="#263238"/>
<path d="M321.436 258.799C321.338 259.638 320.915 260.405 320.257 260.936C319.6 261.467 318.76 261.719 317.919 261.637C317.506 261.617 317.101 261.514 316.728 261.334C316.356 261.155 316.022 260.902 315.749 260.592C315.475 260.282 315.266 259.92 315.134 259.528C315.002 259.136 314.95 258.722 314.98 258.309C315.084 257.47 315.511 256.704 316.17 256.175C316.829 255.645 317.668 255.392 318.51 255.47C318.922 255.491 319.327 255.594 319.699 255.774C320.071 255.953 320.403 256.206 320.676 256.516C320.949 256.826 321.157 257.188 321.287 257.58C321.418 257.973 321.468 258.387 321.436 258.799Z" fill="#263238"/>
<path d="M323.696 258.736C323.244 259.1 321.034 256.99 317.58 256.538C314.126 256.086 311.362 257.505 311.036 257.028C310.885 256.814 311.387 256.111 312.593 255.458C314.222 254.61 316.076 254.294 317.894 254.554C319.693 254.776 321.374 255.568 322.691 256.814C323.646 257.744 323.91 258.548 323.696 258.736Z" fill="#263238"/>
<path d="M322.365 249.203C321.674 249.806 319.087 247.947 315.582 247.595C312.078 247.244 309.164 248.475 308.624 247.746C308.373 247.394 308.838 246.49 310.131 245.649C311.869 244.588 313.908 244.128 315.933 244.342C317.958 244.555 319.856 245.429 321.335 246.829C322.415 247.934 322.679 248.914 322.365 249.203Z" fill="#263238"/>
<path d="M355.235 254.968C355.385 255.383 354.782 256.073 353.526 256.613C351.86 257.253 350.054 257.444 348.291 257.166C346.527 256.888 344.868 256.152 343.478 255.031C342.448 254.127 342.097 253.298 342.361 252.946C342.963 252.243 345.538 253.461 348.804 253.926C352.069 254.39 354.883 254.076 355.235 254.968Z" fill="#263238"/>
<path d="M330.793 292.12C331.145 292.12 331.396 292.786 331.359 293.565C331.321 294.344 330.982 294.959 330.618 294.946C330.253 294.934 330.002 294.268 330.052 293.49C330.103 292.711 330.429 292.095 330.793 292.12Z" fill="#263238"/>
<path d="M279.799 281.193C279.767 281.496 279.659 281.785 279.485 282.035C279.046 282.752 278.409 283.328 277.652 283.693C277.091 283.981 276.476 284.149 275.847 284.186C275.217 284.223 274.587 284.128 273.997 283.906C273.266 283.64 272.605 283.214 272.059 282.66C271.514 282.106 271.099 281.438 270.844 280.704C270.582 279.838 270.527 278.924 270.684 278.034C270.841 277.143 271.204 276.303 271.746 275.579C272.287 274.855 272.992 274.269 273.801 273.868C274.611 273.466 275.504 273.261 276.408 273.268C276.712 273.24 277.019 273.287 277.3 273.406C276.234 273.492 275.19 273.756 274.21 274.185C273.187 274.691 272.352 275.509 271.824 276.521C271.504 277.126 271.308 277.788 271.245 278.469C271.183 279.15 271.256 279.837 271.46 280.49C271.688 281.134 272.051 281.722 272.526 282.214C273 282.705 273.575 283.09 274.21 283.341C274.729 283.551 275.284 283.653 275.843 283.642C276.402 283.631 276.953 283.508 277.463 283.278C278.419 282.812 279.228 282.091 279.799 281.193Z" fill="#455A64"/>
<path d="M293.69 367.204C293.69 367.204 300.699 357.307 305.107 351.743C310.445 345.011 313.623 339.183 313.623 336.055V319.376C313.623 319.376 320.267 317.806 321.159 325.354C322.051 332.903 321.159 334.799 321.159 334.799C321.159 334.799 349.055 315.959 350.939 317.379C354.267 319.765 347.962 324.789 347.962 324.789L330.969 340.15L340.64 337.085C341.768 336.722 342.993 336.816 344.052 337.347C345.112 337.877 345.92 338.803 346.304 339.924C346.622 340.856 346.626 341.866 346.315 342.801C346.004 343.735 345.396 344.542 344.584 345.099L338.856 350.06L341.732 348.904C342.761 348.488 343.908 348.472 344.948 348.861C345.987 349.249 346.843 350.013 347.347 351.002C347.763 351.811 347.917 352.73 347.787 353.63C347.656 354.531 347.248 355.368 346.618 356.026L341.406 361.59L343.843 360.334C344.217 360.134 344.627 360.011 345.05 359.972C345.472 359.933 345.898 359.978 346.303 360.106C346.708 360.233 347.083 360.44 347.407 360.714C347.73 360.989 347.996 361.325 348.188 361.703C348.509 362.351 348.598 363.09 348.441 363.797C348.283 364.503 347.888 365.134 347.322 365.584L316.097 390.264L293.69 367.204Z" fill="#FFBE9D"/>
<path d="M316.148 390.176L315.758 389.812C315.495 389.536 315.105 389.159 314.615 388.682C313.598 387.639 312.103 386.17 310.182 384.21L293.552 367.355L293.427 367.229L293.527 367.091C295.562 364.186 297.785 361.096 300.197 357.822C301.402 356.147 302.658 354.473 303.965 352.798C305.296 351.09 306.665 349.369 307.946 347.498C309.28 345.614 310.484 343.641 311.551 341.594C312.779 339.536 313.398 337.171 313.334 334.774C313.334 329.826 313.334 324.693 313.334 319.376V319.125H313.56C315.28 318.761 317.073 319.057 318.584 319.953C319.326 320.452 319.948 321.108 320.406 321.875C320.842 322.659 321.152 323.507 321.323 324.387C321.631 326.11 321.819 327.851 321.888 329.6C321.888 330.479 321.888 331.371 321.888 332.262C321.882 333.191 321.738 334.114 321.461 335L320.996 334.598C325.304 331.71 329.788 328.783 334.385 325.806C336.683 324.349 339.032 322.893 341.419 321.473C343.823 320.005 346.31 318.676 348.867 317.492C349.217 317.336 349.578 317.206 349.947 317.102C350.143 317.043 350.345 317.005 350.55 316.989C350.678 316.965 350.81 316.965 350.939 316.989C351.07 317.026 351.188 317.1 351.278 317.203C351.617 317.455 351.882 317.793 352.048 318.181C352.213 318.569 352.273 318.995 352.22 319.413C351.883 320.91 351.104 322.271 349.984 323.32C348.967 324.412 347.812 325.304 346.782 326.284L343.591 329.16L331.232 340.376L330.918 339.836L336.583 338.052L339.384 337.173C339.849 337.023 340.288 336.872 340.778 336.734C341.273 336.598 341.786 336.543 342.298 336.57C343.315 336.601 344.297 336.954 345.101 337.579C345.904 338.204 346.488 339.069 346.768 340.048C347.048 341.027 347.009 342.07 346.657 343.025C346.305 343.98 345.658 344.799 344.81 345.362L339.12 350.273L338.819 349.796L341.632 348.666C342.612 348.262 343.698 348.191 344.722 348.465C345.461 348.661 346.141 349.037 346.701 349.559C347.26 350.081 347.683 350.732 347.931 351.456C348.18 352.179 348.246 352.953 348.124 353.709C348.003 354.464 347.697 355.178 347.234 355.787C346.593 356.541 345.978 357.156 345.35 357.834C344.094 359.153 342.838 360.447 341.695 361.715L341.381 361.314L344.006 359.945C344.47 359.73 344.977 359.622 345.489 359.629C346 359.636 346.504 359.758 346.962 359.986C347.42 360.214 347.821 360.542 348.136 360.946C348.45 361.349 348.67 361.818 348.779 362.318C348.882 362.8 348.879 363.298 348.768 363.778C348.657 364.257 348.442 364.707 348.138 365.094C347.833 365.447 347.487 365.763 347.108 366.036L346.066 366.853L344.031 368.46L340.137 371.512L327.226 381.56L319.024 388.004L316.901 389.636C316.424 390.013 316.173 390.176 316.173 390.176L316.901 389.561L319.024 387.853L327.15 381.334L339.911 371.161L343.755 368.096L345.777 366.488L346.807 365.672C347.155 365.427 347.471 365.14 347.749 364.818C348.146 364.298 348.358 363.66 348.351 363.006C348.344 362.352 348.117 361.719 347.708 361.209C347.299 360.698 346.73 360.34 346.093 360.19C345.457 360.041 344.788 360.109 344.194 360.384L341.632 361.728L340.288 362.444L341.331 361.326L344.973 357.433C345.576 356.779 346.229 356.101 346.807 355.435C347.215 354.898 347.485 354.269 347.593 353.604C347.702 352.938 347.645 352.256 347.428 351.617C347.211 350.978 346.84 350.402 346.349 349.94C345.857 349.478 345.26 349.144 344.609 348.967C343.704 348.727 342.746 348.793 341.883 349.155L339.07 350.286L337.475 350.939L338.731 349.796L344.445 344.835C345.176 344.338 345.731 343.624 346.032 342.793C346.333 341.962 346.364 341.058 346.12 340.208C345.876 339.359 345.371 338.609 344.675 338.064C343.98 337.519 343.13 337.207 342.247 337.173C341.318 337.189 340.401 337.385 339.547 337.751L336.746 338.643L331.082 340.439L329.7 340.878L330.78 339.899L343.177 328.683L346.367 325.794C347.422 324.802 348.553 323.922 349.52 322.893C350.535 321.942 351.251 320.715 351.58 319.363C351.626 319.051 351.585 318.731 351.461 318.441C351.336 318.151 351.134 317.9 350.876 317.718C350.801 317.529 350.474 317.642 350.135 317.718C349.793 317.819 349.458 317.941 349.13 318.082C346.601 319.249 344.143 320.566 341.77 322.026C339.384 323.445 337.048 324.89 334.737 326.347C330.127 329.248 325.668 332.162 321.36 335.051L320.569 335.578L320.908 334.636C321.142 333.819 321.264 332.974 321.272 332.124C321.316 331.254 321.316 330.382 321.272 329.512C321.203 327.798 321.022 326.09 320.732 324.4C320.564 323.597 320.28 322.823 319.891 322.101C319.475 321.418 318.918 320.832 318.258 320.381C316.881 319.569 315.252 319.296 313.686 319.614L313.925 319.325C313.925 324.634 313.925 329.767 313.925 334.724C313.925 335.352 313.925 335.98 313.925 336.608C313.849 337.231 313.714 337.845 313.523 338.442C313.14 339.596 312.665 340.717 312.103 341.795C311.022 343.863 309.796 345.852 308.436 347.749C307.18 349.62 305.748 351.366 304.429 353.049C303.111 354.732 301.855 356.415 300.661 358.073C298.25 361.339 296.014 364.428 293.954 367.305V367.041L310.232 383.997L314.615 388.556L315.758 389.749L316.148 390.176Z" fill="#EB996E"/>
<path d="M316.148 390.176L230.577 503.216C217.577 520.361 194.153 526.641 174.722 517.334C160.504 510.526 150.08 496.233 158.796 466.818L240.775 410.712L290.613 362.62L316.148 390.176Z" fill="#0061FF"/>
<path d="M174.722 517.284L175.639 517.748L178.327 519.168C181.868 520.761 185.642 521.775 189.505 522.17C192.299 522.423 195.112 522.372 197.895 522.019C199.483 521.821 201.059 521.54 202.618 521.177C203.434 521.001 204.238 520.725 205.13 520.499C205.981 520.273 206.82 520 207.642 519.683C211.254 518.413 214.706 516.727 217.928 514.659C221.575 512.385 224.832 509.539 227.575 506.231C233.415 499.323 239.456 491.435 245.988 483.02C252.519 474.605 259.301 465.474 266.536 455.928C280.98 436.812 296.768 415.736 313.259 393.53L315.884 390.001V390.415L290.349 362.783H290.789C273.343 377.189 257.191 390.93 242.559 403.176C227.926 415.422 214.826 426.199 203.748 434.965C192.67 443.732 183.652 450.578 177.372 455.162C174.245 457.486 171.783 459.194 170.138 460.387L168.254 461.718L167.601 462.145L168.216 461.668L170.075 460.286C171.695 459.03 174.132 457.322 177.234 454.986C183.514 450.339 192.432 443.469 203.472 434.651C214.512 425.834 227.587 415.045 242.194 402.749C256.802 390.453 272.929 376.712 290.362 362.293L290.601 362.105L290.802 362.318L316.349 389.95L316.537 390.151L316.374 390.377L313.749 393.919C297.245 416.1 281.444 437.189 266.975 456.28C259.728 465.825 252.845 474.894 246.314 483.309C239.783 491.724 233.754 499.637 227.826 506.495C225.044 509.826 221.745 512.689 218.054 514.973C214.8 517.048 211.314 518.734 207.667 519.997C206.845 520.314 206.006 520.586 205.155 520.813C204.313 521.039 203.497 521.303 202.643 521.491C201.073 521.848 199.483 522.117 197.883 522.295C195.078 522.646 192.242 522.68 189.43 522.396C185.544 521.971 181.755 520.91 178.214 519.256C177.033 518.628 176.154 518.113 175.564 517.786C174.973 517.46 174.722 517.284 174.722 517.284Z" fill="#263238"/>
<path d="M239.607 487.843C238.653 487.202 237.654 486.631 236.618 486.135C233.702 484.953 230.529 484.551 227.411 484.967C225.258 485.201 223.134 485.647 221.068 486.298C218.833 486.976 216.509 487.931 214.047 488.898C211.482 489.962 208.856 490.876 206.185 491.636C203.287 492.471 200.26 492.769 197.255 492.515C194.274 492.137 191.363 491.328 188.613 490.116C185.938 489.011 183.464 487.743 181.077 486.662C176.317 484.439 171.682 483.007 167.713 483.221C164.568 483.301 161.535 484.403 159.072 486.361C158.212 487.1 157.448 487.944 156.799 488.873C156.908 488.591 157.047 488.322 157.213 488.069C157.695 487.348 158.265 486.69 158.909 486.11C161.371 484.014 164.47 482.815 167.701 482.706C171.783 482.405 176.493 483.849 181.329 486.047C183.753 487.127 186.239 488.371 188.865 489.463C191.561 490.641 194.411 491.427 197.33 491.799C200.254 492.049 203.199 491.764 206.021 490.958C208.674 490.21 211.283 489.313 213.834 488.27C216.346 487.315 218.632 486.373 220.918 485.758C223.021 485.122 225.185 484.701 227.373 484.502C230.556 484.116 233.784 484.593 236.718 485.884C237.786 486.367 238.763 487.03 239.607 487.843Z" fill="#FAFAFA"/>
<path d="M269.852 449.962C270.139 449.254 270.251 448.487 270.179 447.726C269.979 446.708 269.53 445.756 268.873 444.954C268.215 444.152 267.369 443.525 266.411 443.129C265.073 442.565 263.679 442.144 262.253 441.873C260.579 441.541 258.948 441.018 257.392 440.316C253.921 438.51 250.816 436.074 248.236 433.132C245.41 430.13 242.898 427.14 240.21 424.829C237.904 422.721 235.158 421.151 232.172 420.232C230.139 419.613 227.99 419.467 225.892 419.805C224.422 420.069 223.669 420.433 223.644 420.371C223.619 420.308 223.82 420.258 224.184 420.094C224.716 419.858 225.272 419.677 225.842 419.554C227.965 419.117 230.162 419.199 232.247 419.793C235.334 420.664 238.178 422.232 240.562 424.377C243.417 426.994 246.122 429.77 248.663 432.692C251.192 435.571 254.222 437.966 257.606 439.763C260.746 441.321 264.087 441.446 266.561 442.715C267.573 443.16 268.455 443.854 269.125 444.733C269.795 445.612 270.231 446.646 270.392 447.739C270.457 448.334 270.366 448.935 270.128 449.485C270.066 449.659 269.972 449.821 269.852 449.962Z" fill="#FAFAFA"/>
<path d="M510.2 152.391L506.432 152.629L499.034 164.561L499.524 172.022C499.524 172.022 493.771 172.763 493.796 162.941C493.821 153.119 493.256 155.656 493.256 155.656C493.256 155.656 480.973 156.422 479.88 155.417C479.089 154.702 477.946 142.518 477.368 135.912C477.184 134.323 477.537 132.718 478.37 131.353C479.202 129.987 480.468 128.939 481.965 128.376C482.371 128.237 482.793 128.148 483.221 128.112C486.285 127.911 502.061 129.368 502.061 129.368L508.517 128.941L510.2 152.391Z" fill="#455A64"/>
<path d="M521.052 153.722L517.045 128.288L510.64 128.715L512.31 153.785L521.052 153.722Z" fill="#455A64"/>
<path d="M422.581 175.237C422.763 175.251 422.941 175.293 423.109 175.363C423.327 175.422 423.538 175.507 423.737 175.614C424.022 175.729 424.296 175.872 424.553 176.041C425.975 176.929 427.134 178.18 427.909 179.667C428.685 181.153 429.048 182.82 428.962 184.494C428.842 186.084 428.266 187.606 427.304 188.877C426.237 190.271 424.814 191.352 423.184 192.005C421.429 192.726 419.491 192.876 417.645 192.432C415.822 191.913 414.212 190.826 413.048 189.329C411.942 187.962 411.237 186.314 411.014 184.569C410.799 182.992 411.047 181.386 411.73 179.947C412.481 178.446 413.62 177.174 415.029 176.262C416.438 175.35 418.066 174.831 419.743 174.76C420.048 174.733 420.355 174.733 420.66 174.76C420.885 174.768 421.108 174.802 421.325 174.86C421.509 174.88 421.687 174.931 421.853 175.011C421.853 175.086 421.099 174.885 419.755 175.011C417.858 175.184 416.058 175.928 414.593 177.146C413.591 177.971 412.781 179.004 412.219 180.173C411.605 181.525 411.392 183.024 411.604 184.494C411.77 186.199 412.453 187.812 413.563 189.117C414.673 190.422 416.155 191.356 417.811 191.793C419.467 192.231 421.218 192.151 422.827 191.565C424.436 190.978 425.828 189.913 426.814 188.513C427.734 187.346 428.293 185.936 428.422 184.456C428.509 183.174 428.316 181.888 427.857 180.688C427.185 178.906 425.984 177.372 424.415 176.292C423.272 175.501 422.556 175.3 422.581 175.237Z" fill="#263238"/>
<path d="M396.431 197.606C396.882 197.655 397.314 197.815 397.687 198.071C398.6 198.63 399.346 199.424 399.848 200.369C400.349 201.315 400.588 202.378 400.538 203.447C400.468 204.467 400.101 205.445 399.483 206.26C398.809 207.229 397.854 207.967 396.746 208.373C395.638 208.78 394.432 208.837 393.291 208.535C392.151 208.234 391.13 207.588 390.369 206.687C389.607 205.786 389.141 204.672 389.033 203.497C388.899 202.485 389.06 201.455 389.498 200.533C389.891 199.746 390.458 199.059 391.156 198.523C392.142 197.726 393.367 197.284 394.635 197.267C395.091 197.23 395.549 197.308 395.967 197.493C395.967 197.493 395.477 197.493 394.711 197.493C393.531 197.613 392.414 198.086 391.508 198.85C390.836 199.385 390.315 200.085 389.995 200.882C389.676 201.679 389.57 202.546 389.687 203.397C389.783 204.451 390.2 205.451 390.882 206.26C391.565 207.07 392.479 207.651 393.502 207.925C394.524 208.199 395.607 208.152 396.602 207.792C397.598 207.431 398.459 206.774 399.069 205.909C399.588 205.226 399.922 204.421 400.036 203.571C400.151 202.721 400.043 201.856 399.722 201.06C399.317 199.946 398.581 198.982 397.612 198.297C396.896 197.807 396.406 197.669 396.431 197.606Z" fill="#263238"/>
<path d="M434.501 136.904C434.501 136.904 434.501 136.552 434.652 135.862L435.142 132.797L435.519 130.536C435.694 129.707 435.971 128.828 436.222 127.861L437.089 124.721C437.239 124.144 437.428 123.577 437.654 123.025L438.345 121.267C440.547 115.347 443.648 109.802 447.539 104.826C452.64 98.1735 458.983 92.5732 466.215 88.3345L469.28 86.5761C470.335 86.0486 471.453 85.5838 472.546 85.0689C473.638 84.5539 474.756 83.9887 475.937 83.6119L479.504 82.3559L481.312 81.753L483.196 81.3009L486.964 80.4091C488.22 80.1453 489.589 80.0323 490.921 79.8439C492.254 79.6128 493.601 79.4701 494.953 79.4169C497.729 79.2224 500.516 79.2224 503.292 79.4169C504.699 79.5299 506.118 79.5676 507.55 79.756L511.821 80.497C512.537 80.6352 513.265 80.7106 513.968 80.899L516.104 81.4893C517.523 81.9037 518.967 82.2429 520.387 82.7453C523.26 83.7741 526.063 84.9908 528.777 86.3877L530.837 87.4302C531.188 87.6186 531.54 87.7818 531.879 87.9702L532.859 88.5982L536.815 91.1102C538.071 92.0146 539.327 93.0445 540.583 94.0116C541.198 94.514 541.839 94.9661 542.442 95.5313L544.188 97.1893C546.544 99.4325 548.755 101.824 550.807 104.348C551.749 105.692 552.703 107.036 553.671 108.393L554.386 109.41L555.015 110.49L556.271 112.663L557.526 114.836L558.582 117.135L559.624 119.458L560.152 120.614C560.302 121.003 560.428 121.418 560.566 121.87L562.224 126.718C562.613 128.388 563.003 130.071 563.405 131.742C566.246 145.606 564.482 160.018 558.381 172.788L556.032 177.385L553.256 181.706L552.565 182.773L551.774 183.778L550.204 185.775L548.634 187.747L546.888 189.568L545.155 191.377L544.288 192.281L543.346 193.097L539.578 196.325C536.99 198.296 534.271 200.088 531.439 201.688L529.342 202.944C528.651 203.346 527.897 203.623 527.182 203.962C525.725 204.602 524.293 205.306 522.836 205.884L518.39 207.391L517.284 207.768L516.154 208.044L513.893 208.571C510.935 209.256 507.935 209.747 504.913 210.041C503.418 210.166 501.923 210.154 500.454 210.204L498.243 210.28C497.515 210.28 496.786 210.192 496.058 210.141L491.725 209.84C490.305 209.677 488.911 209.375 487.517 209.149C484.775 208.679 482.068 208.02 479.416 207.177C478.131 206.799 476.872 206.338 475.648 205.796C474.392 205.293 473.136 204.866 471.943 204.301L468.489 202.455L466.781 201.563L465.16 200.546L461.932 198.448C460.865 197.795 459.96 196.953 458.993 196.225C458.026 195.496 457.084 194.743 456.18 193.977L453.668 191.527C447.661 185.68 442.846 178.723 439.488 171.042C436.898 165.279 435.204 159.155 434.464 152.88C434.376 152.227 434.3 151.624 434.225 150.996C434.126 150.411 434.076 149.819 434.074 149.225C434.074 148.082 434.074 147.002 433.999 145.997C433.924 144.993 433.924 144.088 433.999 143.247C434.074 142.405 434.124 141.639 434.175 140.961C434.288 139.617 434.376 138.587 434.426 137.871C434.476 137.155 434.539 136.816 434.539 136.816C434.539 136.816 434.539 137.18 434.539 137.871C434.539 138.562 434.438 139.617 434.363 140.973C434.363 141.652 434.263 142.405 434.212 143.247C434.162 144.088 434.212 145.005 434.288 145.997C434.363 146.99 434.363 148.07 434.401 149.213C434.406 149.802 434.461 150.391 434.564 150.971C434.639 151.587 434.727 152.227 434.815 152.843C435.567 159.082 437.261 165.172 439.839 170.904C443.21 178.519 448.021 185.411 454.007 191.201L456.519 193.612C457.423 194.379 458.378 195.094 459.332 195.848C460.287 196.602 461.191 197.406 462.246 198.046L465.399 200.056L467.007 201.073L468.715 201.94L472.181 203.711C473.362 204.263 474.618 204.69 475.849 205.193C477.078 205.717 478.336 206.17 479.617 206.549C482.249 207.378 484.934 208.024 487.655 208.483C489.037 208.697 490.418 209.011 491.825 209.162L496.121 209.463C496.837 209.463 497.565 209.589 498.294 209.589L500.479 209.513C501.948 209.513 503.418 209.513 504.9 209.338C507.893 209.044 510.864 208.553 513.793 207.868L516.028 207.34C516.405 207.253 516.782 207.177 517.146 207.077L518.239 206.7L522.647 205.193C524.104 204.628 525.511 203.937 526.955 203.296C527.659 202.944 528.412 202.681 529.103 202.279L531.163 201.023C533.967 199.43 536.661 197.651 539.227 195.697L542.995 192.495L543.924 191.691L544.791 190.799L546.499 189.003L548.22 187.207L549.777 185.247L551.334 183.263L552.113 182.283L552.804 181.216L555.542 176.945C556.308 175.426 557.087 173.906 557.866 172.386C560.787 166.074 562.743 159.359 563.668 152.466C564.425 145.554 564.137 138.568 562.814 131.742C562.425 130.084 562.036 128.413 561.646 126.718C561.257 125.022 560.553 123.502 560.013 121.907C559.875 121.505 559.75 121.104 559.599 120.651L559.084 119.496L558.041 117.21L557.012 114.937L555.756 112.776L554.5 110.616L553.872 109.548L553.156 108.544L550.33 104.537C548.299 102.033 546.109 99.6626 543.773 97.4405L542.053 95.7951C541.487 95.2425 540.797 94.7903 540.219 94.2879C538.963 93.3334 537.77 92.316 536.451 91.4117L532.545 89.176L531.565 88.548C531.238 88.3596 530.887 88.1963 530.548 88.0205L528.513 86.9654C525.83 85.6015 523.061 84.4141 520.223 83.411C518.817 82.9337 517.385 82.582 515.978 82.155L513.868 81.5646C513.165 81.3762 512.436 81.2883 511.733 81.1627L507.513 80.384C506.106 80.183 504.687 80.1579 503.292 80.0323C500.541 79.8442 497.78 79.8442 495.028 80.0323C493.685 80.0876 492.347 80.2261 491.021 80.4468C489.702 80.6352 488.384 80.7357 487.103 80.9994L483.335 81.8786L481.463 82.3182C480.86 82.4941 480.27 82.7202 479.667 82.9086L476.125 84.1646C474.944 84.5288 473.877 85.1317 472.759 85.5964C471.641 86.0611 470.561 86.5635 469.506 87.091L466.467 88.8243C459.269 93.0237 452.946 98.5668 447.84 105.152C443.95 110.095 440.833 115.601 438.596 121.48L437.893 123.239C437.663 123.782 437.47 124.34 437.315 124.909C437.001 126.014 436.712 127.044 436.436 127.999C436.159 128.954 435.895 129.833 435.707 130.662C435.519 131.491 435.418 132.232 435.305 132.91C435.054 134.166 434.866 135.246 434.74 135.949C434.614 136.653 434.501 136.904 434.501 136.904Z" fill="#263238"/>
<path d="M237.246 158.356C237.246 158.432 236.493 158.532 235.287 159.135C233.604 160.022 232.232 161.403 231.356 163.092C230.738 164.256 230.386 165.543 230.326 166.86C230.279 168.344 230.663 169.809 231.431 171.08C232.238 172.592 233.488 173.82 235.015 174.599C236.541 175.378 238.27 175.67 239.967 175.436C241.665 175.202 243.25 174.453 244.508 173.29C245.767 172.127 246.638 170.606 247.006 168.932C247.397 167.502 247.371 165.989 246.93 164.574C246.511 163.345 245.829 162.222 244.933 161.283C243.631 159.895 241.935 158.939 240.072 158.545C238.816 158.281 237.987 158.394 237.987 158.319C238.161 158.26 238.344 158.23 238.528 158.231C238.753 158.205 238.98 158.205 239.206 158.231C239.513 158.228 239.82 158.253 240.123 158.306C242.081 158.617 243.887 159.551 245.272 160.969C246.242 161.946 246.984 163.126 247.445 164.423C247.95 165.932 248.002 167.556 247.596 169.095C247.16 170.798 246.26 172.346 244.996 173.567C243.664 174.914 241.933 175.795 240.06 176.079C238.173 176.301 236.264 175.918 234.609 174.986C233.064 174.151 231.781 172.903 230.904 171.381C230.102 170.009 229.714 168.435 229.786 166.847C229.903 165.174 230.464 163.562 231.411 162.178C232.358 160.794 233.657 159.687 235.174 158.972C235.454 158.84 235.744 158.731 236.041 158.645C236.252 158.569 236.471 158.514 236.694 158.482C236.869 158.409 237.056 158.366 237.246 158.356Z" fill="#263238"/>
<path d="M261.085 178.641C261.085 178.641 260.62 178.779 259.829 179.168C258.788 179.745 257.944 180.62 257.405 181.68C256.99 182.433 256.779 183.28 256.792 184.14C256.805 184.999 257.042 185.839 257.48 186.579C257.978 187.51 258.749 188.266 259.69 188.745C260.631 189.225 261.696 189.404 262.742 189.259C263.788 189.114 264.764 188.651 265.539 187.934C266.314 187.217 266.851 186.279 267.076 185.247C267.298 184.419 267.299 183.547 267.079 182.718C266.859 181.89 266.424 181.133 265.82 180.525C265.018 179.654 263.971 179.046 262.818 178.779C261.989 178.603 261.562 178.653 261.562 178.603C261.995 178.456 262.46 178.43 262.906 178.528C263.965 178.689 264.961 179.134 265.788 179.815C266.615 180.496 267.242 181.388 267.603 182.396C267.931 183.365 267.971 184.408 267.717 185.398C267.47 186.554 266.873 187.605 266.007 188.41C265.142 189.214 264.05 189.733 262.879 189.895C261.709 190.057 260.517 189.854 259.465 189.315C258.414 188.775 257.554 187.925 257.003 186.88C256.486 185.995 256.241 184.977 256.299 183.954C256.374 182.883 256.735 181.851 257.345 180.967C257.955 180.083 258.791 179.38 259.766 178.93C260.172 178.718 260.627 178.618 261.085 178.641Z" fill="#263238"/>
<path d="M168.405 109.699H164.348L155.556 97.3526V89.2639C155.556 89.2639 149.276 88.8745 150.017 99.4752C150.758 110.076 149.954 107.375 149.954 107.375C149.954 107.375 136.64 107.375 135.535 108.631C134.731 109.473 134.367 122.699 134.279 129.87C134.193 131.601 134.687 133.311 135.684 134.729C136.681 136.147 138.123 137.191 139.78 137.695C140.248 137.819 140.729 137.882 141.212 137.884C144.541 137.884 161.497 135.183 161.497 135.183H168.505L168.405 109.699Z" fill="#0061FF"/>
<path d="M180.022 107.476L177.523 135.208H170.577V108.029L180.022 107.476Z" fill="#0061FF"/>
<path d="M230.049 113.542C230.049 113.542 230.049 113.166 229.949 112.412C229.848 111.658 229.836 110.515 229.748 109.058C229.748 108.317 229.66 107.501 229.61 106.546C229.559 105.592 229.333 104.662 229.17 103.595C229.007 102.527 228.831 101.384 228.63 100.153C228.548 99.5196 228.413 98.8937 228.228 98.282C228.065 97.6414 227.889 97.026 227.713 96.3101C226.078 89.7104 223.452 83.3965 219.926 77.5831C215.302 69.8468 209.234 63.0713 202.053 57.6253L199.013 55.3645C197.946 54.6611 196.815 54.0206 195.71 53.3298L194.027 52.3124C193.471 51.9462 192.887 51.6229 192.281 51.3453L188.639 49.5994C188.023 49.3106 187.383 48.9966 186.78 48.7202L184.833 48.0043L180.864 46.6102C179.52 46.1706 178.114 45.8817 176.732 45.5049L174.584 44.9648C174.233 44.8769 173.881 44.7764 173.517 44.701L172.436 44.5378C169.503 43.9948 166.536 43.6507 163.557 43.5078C162.037 43.5078 160.517 43.3069 158.972 43.332L154.325 43.5706C153.546 43.5706 152.768 43.5706 151.976 43.7214L149.64 44.0856C148.083 44.3368 146.488 44.5252 144.918 44.8518C141.772 45.5642 138.676 46.4788 135.648 47.5898L133.325 48.4439C132.935 48.5946 132.533 48.7202 132.157 48.8835L131.026 49.4236L126.492 51.6216C125.01 52.4254 123.591 53.3549 122.121 54.2341C121.405 54.6862 120.639 55.0756 119.948 55.6031L117.838 57.148C115.031 59.2233 112.366 61.485 109.863 63.9178L106.296 67.824L105.404 68.8037C105.127 69.1554 104.864 69.5196 104.6 69.8713L102.992 72.0567L101.372 74.217L99.9527 76.5155L98.546 78.8517L97.8426 80.0072C97.6291 80.4091 97.4407 80.8361 97.2397 81.2632L94.8533 86.2118C94.2253 87.9451 93.5974 89.6784 92.9442 91.4117C90.6375 98.5659 89.4181 106.026 89.327 113.542C89.4225 121.05 90.6418 128.501 92.9442 135.648L94.8533 140.848L97.2272 145.796L97.8301 147.052L98.546 148.221L99.9527 150.544L101.372 152.855L102.992 155.041L104.6 157.188L105.404 158.256L106.308 159.248L109.875 163.18C112.377 165.609 115.038 167.871 117.838 169.949L119.911 171.494C120.589 172.009 121.368 172.411 122.083 172.863C123.553 173.742 124.972 174.672 126.454 175.476L130.988 177.661L132.119 178.214L133.287 178.653L135.611 179.508C138.671 180.623 141.801 181.537 144.98 182.246C146.55 182.572 148.145 182.761 149.703 183.012L152.052 183.376C152.83 183.476 153.609 183.476 154.388 183.527L159.048 183.765C160.58 183.765 162.112 183.64 163.619 183.59C166.599 183.447 169.566 183.103 172.499 182.56L173.592 182.396L174.584 182.12L176.694 181.58C178.088 181.203 179.495 180.914 180.827 180.462L184.783 179.03L186.73 178.314L188.589 177.435L192.231 175.689C192.834 175.407 193.417 175.084 193.977 174.722L195.66 173.705C196.778 173.014 197.896 172.373 198.963 171.67L202.003 169.409C209.204 163.975 215.289 157.203 219.926 149.464C220.441 148.61 220.956 147.794 221.433 146.952C221.91 146.11 222.262 145.244 222.689 144.44L223.87 141.991C224.058 141.589 224.272 141.2 224.435 140.735L224.887 139.479C225.477 137.884 226.03 136.351 226.57 134.894C227.11 133.437 227.361 131.98 227.738 130.637C227.914 129.958 228.09 129.305 228.253 128.665C228.413 128.072 228.527 127.467 228.592 126.856C228.793 125.6 228.969 124.495 229.132 123.427C229.296 122.36 229.484 121.38 229.572 120.476C229.66 119.571 229.672 118.755 229.71 117.964C229.798 116.507 229.873 115.452 229.911 114.61C229.949 113.768 230.012 113.467 230.012 113.467C230.012 113.467 230.012 113.856 230.012 114.61C230.012 115.364 229.936 116.507 229.873 117.976C229.873 118.705 229.798 119.534 229.76 120.488C229.723 121.443 229.497 122.372 229.358 123.44C229.22 124.507 229.019 125.663 228.843 126.894C228.76 127.53 228.629 128.16 228.454 128.778C228.291 129.418 228.128 130.034 227.952 130.762C227.587 132.106 227.299 133.576 226.809 135.045C226.319 136.515 225.716 138.047 225.138 139.655L224.686 140.911C224.535 141.313 224.322 141.702 224.133 142.167C223.757 142.97 223.355 143.787 222.953 144.679C222.551 145.57 222.149 146.362 221.697 147.191C221.245 148.02 220.692 148.861 220.19 149.703C215.573 157.491 209.495 164.314 202.292 169.799L199.29 172.072C198.21 172.788 197.079 173.428 195.961 174.132L194.266 175.162C193.709 175.528 193.126 175.851 192.52 176.129L188.852 177.912C188.224 178.201 187.596 178.515 186.981 178.792L185.022 179.52L181.04 180.977C179.684 181.429 178.277 181.718 176.87 182.107L174.748 182.66C174.396 182.748 174.044 182.848 173.68 182.924L172.587 183.087C169.634 183.645 166.646 183.997 163.644 184.142C162.112 184.142 160.58 184.356 159.022 184.331L154.338 184.104C153.559 184.042 152.755 184.104 151.976 183.954L149.615 183.59C148.032 183.338 146.437 183.15 144.842 182.823C141.636 182.117 138.481 181.198 135.397 180.073L133.048 179.206C132.659 179.068 132.257 178.93 131.868 178.766L130.725 178.226L126.153 176.016C124.658 175.212 123.214 174.27 121.732 173.391C121.016 172.926 120.237 172.537 119.546 172.009L117.461 170.452C114.626 168.359 111.936 166.076 109.41 163.619L105.806 159.663L104.901 158.67L104.085 157.59L102.465 155.417L100.832 153.232L99.4001 150.908L97.9682 148.56L97.2523 147.379L96.6494 146.123L94.2379 141.099L92.3162 135.849C89.9915 128.638 88.7637 121.118 88.6738 113.542C88.7627 105.949 89.9949 98.4121 92.3288 91.1856C92.9694 89.4272 93.5848 87.6814 94.2505 85.9355C94.9162 84.1897 95.8707 82.5946 96.662 80.9115C96.8629 80.5096 97.0514 80.0826 97.2649 79.6555L97.9808 78.4749L99.4126 76.1262L100.844 73.8026L102.465 71.6171L104.098 69.4568C104.361 69.0926 104.625 68.7283 104.914 68.3766L105.818 67.3844L109.423 63.4154C111.95 60.9688 114.636 58.6906 117.461 56.5954L119.546 55.0379C120.237 54.5104 121.016 54.121 121.744 53.6563C123.226 52.7771 124.658 51.8351 126.153 51.0313L130.737 48.8207L131.868 48.2806C132.257 48.1174 132.659 47.9792 133.048 47.841L135.397 46.9744C138.481 45.8493 141.636 44.9304 144.842 44.2238C146.425 43.8972 148.032 43.7088 149.615 43.4576L151.976 43.0934C152.755 42.9929 153.546 43.0054 154.338 42.9426L159.022 42.7166C160.567 42.7166 162.112 42.8422 163.632 42.905C166.638 43.0492 169.63 43.4017 172.587 43.96L173.68 44.1233C174.044 44.1986 174.396 44.2991 174.748 44.387L176.87 44.9397C178.264 45.3165 179.684 45.6179 181.04 46.0701L185.022 47.527L186.981 48.243L188.84 49.1347L192.52 50.9057C193.123 51.1925 193.707 51.5198 194.266 51.8854L195.961 52.9153C197.079 53.6061 198.21 54.2592 199.277 54.9626L202.329 57.261C209.538 62.7441 215.619 69.5677 220.24 77.357C223.758 83.2075 226.363 89.5606 227.964 96.197C228.14 96.8753 228.303 97.541 228.467 98.1815C228.642 98.7992 228.772 99.4289 228.856 100.066C229.032 101.322 229.208 102.452 229.371 103.52C229.534 104.587 229.698 105.567 229.773 106.471C229.848 107.375 229.848 108.204 229.886 108.983C229.949 110.453 229.986 111.57 230.024 112.337C230.062 113.103 230.049 113.542 230.049 113.542Z" fill="#263238"/>
<path d="M342.813 138.047C342.565 138.04 342.321 137.985 342.095 137.884C341.869 137.784 341.665 137.639 341.495 137.46C341.325 137.28 341.191 137.069 341.103 136.838C341.014 136.606 340.972 136.36 340.979 136.113L341.356 119.32C341.361 119.029 341.435 118.744 341.57 118.487C341.705 118.23 341.898 118.008 342.134 117.838C342.372 117.67 342.645 117.558 342.932 117.513C343.22 117.467 343.514 117.488 343.792 117.574C345.36 118.03 347.004 118.161 348.624 117.958C350.244 117.755 351.806 117.222 353.212 116.393C354.519 115.679 355.666 114.706 356.584 113.533C357.502 112.361 358.171 111.013 358.55 109.573C358.848 108.11 358.848 106.602 358.55 105.139C358.252 103.676 357.663 102.288 356.817 101.058C355.953 99.6782 354.818 98.4875 353.482 97.5573C352.146 96.6271 350.636 95.9764 349.042 95.6444C342.875 94.5014 336.118 98.6085 333.97 104.813C333.804 105.286 333.456 105.674 333.004 105.89C332.552 106.107 332.032 106.135 331.559 105.969C331.086 105.802 330.698 105.454 330.482 105.002C330.265 104.55 330.237 104.03 330.403 103.557C333.141 95.6695 341.808 90.4445 349.733 91.9141C351.826 92.342 353.812 93.1876 355.57 94.4005C357.329 95.6133 358.825 97.1684 359.969 98.9728C361.139 100.609 361.946 102.476 362.334 104.449C362.722 106.423 362.684 108.456 362.221 110.413C361.758 112.371 360.882 114.206 359.651 115.797C358.42 117.387 356.862 118.695 355.084 119.634C352.049 121.398 348.518 122.113 345.036 121.669L344.671 136.163C344.671 136.658 344.476 137.134 344.129 137.486C343.781 137.839 343.308 138.04 342.813 138.047Z" fill="#263238"/>
<path d="M345.727 146.336C345.727 146.884 345.564 147.418 345.26 147.873C344.956 148.328 344.524 148.682 344.018 148.891C343.512 149.099 342.956 149.153 342.42 149.046C341.883 148.938 341.391 148.674 341.005 148.286C340.619 147.898 340.357 147.405 340.252 146.868C340.147 146.331 340.203 145.775 340.414 145.27C340.625 144.766 340.981 144.335 341.437 144.033C341.893 143.731 342.429 143.571 342.976 143.573C343.338 143.573 343.697 143.645 344.032 143.784C344.366 143.923 344.67 144.127 344.925 144.383C345.181 144.64 345.383 144.945 345.521 145.28C345.658 145.615 345.728 145.974 345.727 146.336Z" fill="#263238"/>
<path d="M136.653 331.358C133.834 331.387 131.081 330.506 128.803 328.846C127.47 327.811 126.359 326.519 125.533 325.048C124.706 323.577 124.183 321.956 123.992 320.28C123.746 318.698 123.838 317.083 124.263 315.54C124.688 313.996 125.436 312.561 126.457 311.329C127.478 310.096 128.749 309.095 130.186 308.39C131.624 307.686 133.194 307.295 134.794 307.243C137.406 307.075 140.006 307.715 142.242 309.076L147.266 299.669C147.381 299.45 147.539 299.255 147.729 299.097C147.92 298.938 148.14 298.819 148.377 298.745C148.613 298.672 148.862 298.646 149.109 298.668C149.356 298.691 149.596 298.762 149.815 298.878C150.035 298.993 150.229 299.151 150.388 299.341C150.546 299.532 150.666 299.752 150.739 299.989C150.813 300.225 150.839 300.474 150.816 300.721C150.793 300.968 150.722 301.208 150.607 301.427L144.54 312.744C144.402 313.001 144.207 313.223 143.969 313.393C143.732 313.563 143.459 313.676 143.171 313.724C142.884 313.772 142.59 313.752 142.313 313.665C142.036 313.577 141.783 313.425 141.576 313.221C140.695 312.417 139.659 311.801 138.532 311.41C137.404 311.019 136.21 310.862 135.02 310.948C133.939 310.991 132.878 311.253 131.902 311.72C130.926 312.186 130.055 312.847 129.343 313.661C128.679 314.521 128.195 315.506 127.919 316.556C127.643 317.607 127.58 318.702 127.735 319.777C127.852 320.959 128.208 322.105 128.78 323.145C129.352 324.186 130.128 325.099 131.063 325.831C133.024 327.134 135.369 327.733 137.715 327.53C140.06 327.327 142.267 326.334 143.975 324.714C144.335 324.383 144.809 324.206 145.298 324.219C145.786 324.232 146.251 324.434 146.593 324.783C146.935 325.132 147.128 325.6 147.132 326.088C147.136 326.577 146.949 327.048 146.613 327.401C143.933 329.964 140.361 331.383 136.653 331.358Z" fill="#263238"/>
<path d="M150.33 292.51C150.515 292.136 150.807 291.825 151.169 291.617C151.53 291.408 151.946 291.312 152.362 291.34C152.779 291.368 153.177 291.518 153.508 291.773C153.839 292.027 154.087 292.374 154.221 292.77C154.354 293.165 154.367 293.592 154.259 293.995C154.15 294.398 153.924 294.759 153.61 295.034C153.296 295.309 152.907 295.484 152.493 295.538C152.079 295.591 151.659 295.521 151.285 295.336C150.783 295.088 150.401 294.65 150.222 294.12C150.043 293.591 150.082 293.011 150.33 292.51Z" fill="#263238"/>
<path d="M516.894 299.656C516.595 299.66 516.299 299.59 516.033 299.455C515.766 299.319 515.536 299.121 515.362 298.878L507.826 288.453C507.653 288.218 507.538 287.945 507.49 287.657C507.442 287.369 507.462 287.074 507.55 286.795C507.631 286.51 507.777 286.248 507.978 286.03C508.179 285.812 508.428 285.643 508.705 285.539C509.825 285.122 510.847 284.478 511.707 283.649C512.567 282.819 513.247 281.82 513.704 280.716C514.149 279.731 514.387 278.666 514.402 277.585C514.417 276.505 514.21 275.433 513.792 274.436C513.321 273.455 512.657 272.58 511.839 271.864C511.021 271.147 510.066 270.603 509.032 270.266C507.919 269.85 506.734 269.663 505.547 269.715C504.36 269.766 503.196 270.056 502.124 270.567C500.09 271.742 498.514 273.571 497.651 275.756C496.789 277.941 496.692 280.353 497.376 282.6C497.533 283.075 497.494 283.592 497.269 284.038C497.044 284.485 496.651 284.823 496.176 284.98C495.702 285.137 495.184 285.098 494.738 284.873C494.292 284.648 493.953 284.255 493.796 283.781C492.819 280.675 492.941 277.327 494.142 274.301C495.342 271.274 497.549 268.754 500.39 267.164C501.92 266.426 503.582 266.004 505.278 265.922C506.974 265.84 508.669 266.1 510.263 266.686C511.776 267.194 513.171 268.002 514.364 269.061C515.558 270.121 516.525 271.411 517.208 272.853C517.842 274.321 518.169 275.902 518.169 277.501C518.169 279.099 517.842 280.68 517.208 282.148C516.197 284.559 514.475 286.605 512.272 288.013L518.552 296.629C518.698 296.83 518.803 297.058 518.86 297.3C518.918 297.541 518.927 297.792 518.887 298.037C518.847 298.282 518.76 298.517 518.629 298.728C518.498 298.939 518.327 299.122 518.125 299.267C517.774 299.54 517.338 299.678 516.894 299.656Z" fill="#263238"/>
<path d="M523.4 302.621C523.652 302.953 523.799 303.352 523.824 303.769C523.849 304.185 523.75 304.599 523.54 304.959C523.33 305.319 523.018 305.609 522.643 305.791C522.268 305.974 521.848 306.042 521.434 305.986C521.021 305.93 520.634 305.752 520.322 305.476C520.009 305.201 519.785 304.838 519.678 304.435C519.572 304.032 519.586 303.607 519.721 303.212C519.856 302.818 520.105 302.472 520.436 302.219C520.883 301.881 521.446 301.734 522.001 301.809C522.556 301.884 523.059 302.176 523.4 302.621Z" fill="#263238"/>
</svg>
