<svg width="24" height="24" viewBox="0 0 24 24" fill="none" xmlns="http://www.w3.org/2000/svg">
<path d="M12 22.5469C17.8249 22.5469 22.5469 17.8249 22.5469 12C22.5469 6.17512 17.8249 1.45312 12 1.45312C6.17512 1.45312 1.45312 6.17512 1.45312 12C1.45312 17.8249 6.17512 22.5469 12 22.5469Z" fill="url(#paint0_linear_270_486)"/>
<path d="M14.2408 6.14062H9.76426C7.76738 6.14062 6.14551 7.7625 6.14551 9.75937V14.2359C6.14551 16.2328 7.76738 17.8547 9.76426 17.8547H14.2408C16.2377 17.8547 17.8596 16.2328 17.8596 14.2359V9.75937C17.8596 7.7625 16.2377 6.14062 14.2408 6.14062ZM16.5518 14.2406C16.5518 15.5156 15.5158 16.5562 14.2361 16.5562H9.75957C8.48457 16.5562 7.44395 15.5203 7.44395 14.2406V9.76406C7.44395 8.48906 8.47988 7.44844 9.75957 7.44844H14.2361C15.5111 7.44844 16.5518 8.48438 16.5518 9.76406V14.2406Z" fill="white"/>
<path d="M12.0002 9.0047C10.3502 9.0047 9.00488 10.35 9.00488 12C9.00488 13.65 10.3502 14.9953 12.0002 14.9953C13.6502 14.9953 14.9955 13.65 14.9955 12C14.9955 10.35 13.6502 9.0047 12.0002 9.0047ZM12.0002 13.8188C10.9971 13.8188 10.1814 13.0031 10.1814 12C10.1814 10.9969 10.9971 10.1813 12.0002 10.1813C13.0033 10.1813 13.8189 10.9969 13.8189 12C13.8189 13.0031 13.0033 13.8188 12.0002 13.8188Z" fill="white"/>
<path d="M15.2232 9.33307C15.4992 9.28834 15.6866 9.02836 15.6419 8.7524C15.5971 8.47644 15.3372 8.289 15.0612 8.33373C14.7852 8.37847 14.5978 8.63844 14.6425 8.9144C14.6873 9.19036 14.9472 9.37781 15.2232 9.33307Z" fill="white"/>
<defs>
<linearGradient id="paint0_linear_270_486" x1="3.96933" y1="20.0307" x2="18.9576" y2="5.04239" gradientUnits="userSpaceOnUse">
<stop stop-color="#FEE411"/>
<stop offset="0.0518459" stop-color="#FEDB16"/>
<stop offset="0.1381" stop-color="#FEC125"/>
<stop offset="0.2481" stop-color="#FE983D"/>
<stop offset="0.3762" stop-color="#FE5F5E"/>
<stop offset="0.5" stop-color="#FE2181"/>
<stop offset="1" stop-color="#9000DC"/>
</linearGradient>
</defs>
</svg>
