<svg width="40" height="41" viewBox="0 0 40 41" fill="none" xmlns="http://www.w3.org/2000/svg">
<path fill-rule="evenodd" clip-rule="evenodd" d="M20 40.5C31.0458 40.5 40 31.5457 40 20.5C40 9.45431 31.0458 0.5 20 0.5C8.9543 0.5 0 9.45431 0 20.5C0 31.5457 8.9543 40.5 20 40.5ZM23.087 15.9526C24.7918 14.2477 24.7918 11.4836 23.087 9.77867C21.3821 8.07379 18.618 8.07379 16.9131 9.77867C15.2083 11.4836 15.2083 14.2477 16.9131 15.9526L20 19.0395L23.087 15.9526ZM24.5475 23.587C26.2524 25.2919 29.0165 25.2919 30.7214 23.587C32.4262 21.8821 32.4262 19.118 30.7214 17.4131C29.0165 15.7083 26.2524 15.7083 24.5475 17.4131L21.4606 20.5001L24.5475 23.587ZM23.087 31.2214C24.7918 29.5165 24.7918 26.7524 23.087 25.0475L20 21.9606L16.9131 25.0475C15.2083 26.7524 15.2083 29.5165 16.9131 31.2214C18.618 32.9263 21.3821 32.9263 23.087 31.2214ZM9.27864 23.587C7.5738 21.8821 7.5738 19.118 9.27864 17.4131C10.9836 15.7083 13.7477 15.7083 15.4526 17.4131L18.5395 20.5001L15.4526 23.587C13.7477 25.2919 10.9836 25.2919 9.27864 23.587Z" fill="#0061FF"/>
</svg>
